<?xml version="1.0" encoding="UTF-8" standalone="no"?>
<!-- Created with Inkscape (http://www.inkscape.org/) -->

<svg
   width="210mm"
   height="297mm"
   viewBox="0 0 210 297"
   version="1.1"
   id="svg1"
   xml:space="preserve"
   sodipodi:docname="brushlikestroke-orign.svg"
   inkscape:version="1.3.2 (091e20e, 2023-11-25, custom)"
   xmlns:inkscape="http://www.inkscape.org/namespaces/inkscape"
   xmlns:sodipodi="http://sodipodi.sourceforge.net/DTD/sodipodi-0.dtd"
   xmlns="http://www.w3.org/2000/svg"
   xmlns:svg="http://www.w3.org/2000/svg"><sodipodi:namedview
     id="namedview1"
     pagecolor="#ffffff"
     bordercolor="#000000"
     borderopacity="0.25"
     inkscape:showpageshadow="2"
     inkscape:pageopacity="0.0"
     inkscape:pagecheckerboard="0"
     inkscape:deskcolor="#d1d1d1"
     inkscape:document-units="mm"
     inkscape:zoom="0.75213425"
     inkscape:cx="374.93307"
     inkscape:cy="192.11996"
     inkscape:window-width="2400"
     inkscape:window-height="1261"
     inkscape:window-x="4786"
     inkscape:window-y="1341"
     inkscape:window-maximized="1"
     inkscape:current-layer="layer1" /><defs
     id="defs1"><inkscape:path-effect
       effect="skeletal"
       id="path-effect8"
       is_visible="true"
       lpeversion="1"
       pattern="m 32.040345,82.787542 c 0.97122,0.15593 11.89285,-0.238015 16.317349,-0.588594 3.970271,-0.314585 17.401571,-0.491847 17.78341,-0.234611 0.17074,0.115031 0.64937,0.273902 1.064022,0.352946 0.466839,0.08901 0.627349,0.07169 0.421679,-0.04599 -0.19754,-0.113039 1.90677,-0.194404 5.19193,-0.200505 3.038043,-0.0056 5.844694,-0.06895 6.237349,-0.141077 0.392656,-0.07213 2.693091,-0.222052 5.111832,-0.333313 4.741154,-0.218089 5.472086,-0.301227 5.88698,-0.666109 0.195723,-0.172104 -0.02039,-0.219777 -0.787548,-0.174664 -0.581527,0.03417 -1.137554,-0.0065 -1.235585,-0.09043 -0.09803,-0.0839 0.592979,-0.152963 1.535825,-0.152963 1.698344,0 1.710489,0.0043 1.25987,0.430466 -0.25794,0.243933 -0.32944,0.429947 -0.164846,0.429947 0.159636,-3e-6 0.290421,-0.09669 0.290421,-0.214974 10e-7,-0.309525 0.687881,-0.265481 0.839225,0.05374 0.09815,0.207015 0.183875,0.199627 0.372587,-0.03152 0.158795,-0.194505 0.408644,-0.240757 0.710035,-0.131776 0.255821,0.0925 1.935294,0.203301 3.732072,0.24598 1.796776,0.04269 3.569958,0.122381 3.940328,0.17725 0.37036,0.05485 0.70965,0.01053 0.75395,-0.0987 0.0443,-0.109233 1.21151,-0.215549 2.59365,-0.236159 1.38214,-0.02059 2.65892,-0.136579 2.83755,-0.257349 0.2239,-0.151395 0.41542,-0.142192 0.61598,0.02945 0.46914,0.401509 1.01878,0.302134 0.87799,-0.158646 -0.11684,-0.382412 0.0656,-0.409259 2.95744,-0.439249 2.53036,-0.02623 3.1545,0.02988 3.48609,0.313675 0.22212,0.19032 0.53694,0.275225 0.6997,0.189141 0.19618,-0.103742 0.24475,-0.04281 0.14469,0.180352 -0.11699,0.260808 0.0859,0.369541 0.89969,0.483691 1.55307,0.217839 6.98062,0.322642 6.07663,0.117307 -0.71484,-0.16239 -0.72127,-0.173285 -0.12557,-0.213943 0.62244,-0.04252 0.62136,-0.04605 -0.12558,-0.339512 -0.6887,-0.27059 -0.55817,-0.286828 1.50792,-0.192239 1.24393,0.05695 4.3453,0.198114 6.89209,0.313678 7.01804,0.318463 10.43671,0.258469 12.08091,-0.211356 l 1.38183,-0.394808 -0.94206,-0.02222 c -0.5183,-0.01214 -0.94258,0.06985 -0.94258,0.181899 1e-5,0.320642 -5.20156,0.117599 -5.67924,-0.221691 -0.22703,-0.161255 -1.03485,-0.289575 -1.86035,-0.295073 -0.80241,-0.0054 -1.41957,-0.06409 -1.3715,-0.130742 0.0481,-0.06638 -0.29834,-0.09532 -0.76997,-0.06356 -0.47163,0.03179 -0.92453,-0.03479 -1.00614,-0.147795 -0.0816,-0.113011 0.16019,-0.205154 0.53692,-0.205155 0.37672,2e-6 0.62995,-0.04681 0.56327,-0.103871 -0.32672,-0.279601 -4.38974,-0.480131 -4.68085,-0.230993 -0.0769,0.06585 0.22777,0.119887 0.67696,0.119887 0.54442,-2e-6 0.78014,0.08951 0.70693,0.268713 -0.0604,0.147844 -0.29594,0.240423 -0.52347,0.205672 -0.22754,-0.03476 -0.41393,0.04963 -0.41394,0.187584 1e-5,0.170371 -0.10076,0.182851 -0.31419,0.03876 -0.17276,-0.116638 -0.48359,-0.222174 -0.69091,-0.234615 -0.20732,-0.01244 -1.05536,-0.110054 -1.88463,-0.216523 -1.21791,-0.156359 -1.32654,-0.198893 -0.56535,-0.221696 1.4181,-0.04243 1.13299,-0.45837 -0.31419,-0.45837 -0.69107,0 -1.25678,-0.07674 -1.25678,-0.170531 -2e-5,-0.0938 1.24383,-0.194982 2.76418,-0.224792 1.52035,-0.02981 2.76445,0.02277 2.76417,0.116787 -2.8e-4,0.09417 0.72455,0.138931 1.61127,0.09974 0.95251,-0.04212 1.84766,0.0366 2.18746,0.192236 0.42477,0.194589 0.60055,0.199181 0.67129,0.01757 0.0527,-0.135251 0.31231,-0.245982 0.57722,-0.245982 0.26492,6e-6 0.49037,-0.12085 0.50126,-0.268718 0.0159,-0.215064 0.0454,-0.215063 0.14676,5e-6 0.0697,0.147866 0.29369,0.268716 0.49765,0.268719 0.20398,-6e-6 0.31819,0.07251 0.25372,0.161232 -0.0645,0.08879 0.57886,0.125393 1.4299,0.08113 1.81534,-0.09436 1.30825,-0.417842 -0.69351,-0.44235 -1.70641,-0.02087 -1.2714,-0.262178 0.60462,-0.335382 0.84477,-0.03297 1.60485,-0.118856 1.68879,-0.190685 0.0838,-0.07185 0.30569,-0.02142 0.49299,0.111621 0.42541,0.302166 3.76815,0.127419 4.17183,-0.218076 0.32065,-0.274436 0.1605,-0.290661 -2.83238,-0.285771 -1.53016,0.0026 -1.69562,-0.02627 -0.87953,-0.152961 2.12419,-0.329782 0.40078,-0.460511 -10.5544,-0.801501 -2.34963,-0.07313 -4.55499,-0.233008 -4.90047,-0.355018 l -0.62839,-0.221691 0.75396,-0.155548 c 0.41466,-0.0854 0.66457,-0.166331 0.55552,-0.180351 -0.10904,-0.014 0.005,-0.211743 0.25218,-0.43925 0.10244,-0.09408 0.29066,-0.134604 0.43874,-0.194819 -0.0614,0.02594 -0.0412,0.103651 0.11885,0.268718 0.23361,0.240896 0.20045,0.3572 -0.15761,0.553453 -0.41763,0.228886 -0.41403,0.237154 0.0486,0.100765 1.12637,-0.332076 1.38236,-0.353218 1.38235,-0.113689 3e-5,0.175683 0.6794,0.239307 2.26188,0.211875 1.24393,-0.02154 2.26137,-0.120848 2.26136,-0.22066 -1e-5,-0.10004 0.25435,-0.09905 0.56534,0.0015 0.31098,0.100595 1.30096,0.117917 2.19935,0.03876 1.54888,-0.136482 1.58746,-0.15357 0.75344,-0.325045 -0.83696,-0.172085 -0.85107,-0.18945 -0.29094,-0.366903 0.32375,-0.10255 0.70897,-0.123124 0.85576,-0.04548 0.15707,0.0831 0.19339,0.03916 0.0878,-0.106976 -0.11711,-0.162165 0.0363,-0.248572 0.44287,-0.248563 0.34238,-6e-6 0.82139,-0.06501 1.06402,-0.144696 0.32672,-0.107291 0.40317,-0.06022 0.29507,0.180873 -0.12548,0.279756 0.0103,0.294506 0.96791,0.106971 1.36561,-0.267449 0.98904,-0.565091 -0.72089,-0.56999 -0.89179,-0.0025 -1.19373,-0.08454 -1.19373,-0.325552 -1e-5,-0.361621 0.63957,-0.439772 0.87953,-0.107488 0.30103,0.416865 0.65278,0.225983 0.38188,-0.207223 -0.14517,-0.232175 -0.4201,-0.370792 -0.61132,-0.307991 -0.19124,0.06281 -0.42242,0.0106 -0.51368,-0.115753 -0.0912,-0.126358 -0.39226,-0.229441 -0.66869,-0.229448 -0.2764,0 -0.43268,0.09668 -0.34726,0.214976 0.0854,0.118292 0.0217,0.214974 -0.14156,0.214981 -0.22471,10e-7 -0.2267,0.07238 -0.008,0.298186 0.43377,0.447311 -0.69642,0.492609 -5.50458,0.218592 -2.28053,-0.129968 -3.90037,-0.251374 -3.59927,-0.269237 0.30111,-0.01789 0.7254,-0.184636 0.94259,-0.370518 0.35215,-0.30145 0.39481,-0.302099 0.3948,-0.0067 2e-5,0.2055 0.14273,0.28425 0.3757,0.20774 0.20653,-0.06783 0.31262,-0.209847 0.23616,-0.315744 -0.0765,-0.105888 0.51796,-0.206715 1.32085,-0.224275 1.312,-0.02871 -0.63181,-0.159767 -6.95875,-0.469221 -2.48364,-0.121492 -4.15353,-0.509498 -2.29805,-0.533819 0.60197,-0.0079 1.15713,-0.06745 1.2335,-0.13281 0.0764,-0.06536 0.28629,-0.01391 0.46664,0.114207 0.23936,0.170003 0.54057,0.141947 1.11518,-0.103353 0.60115,-0.25669 0.75734,-0.268973 0.65991,-0.05168 -0.0854,0.190517 0.0932,0.288857 0.54106,0.297658 0.36789,0.0072 0.89507,0.03834 1.1715,0.06925 0.27643,0.03089 0.78567,-0.05102 1.13119,-0.18242 0.56489,-0.214788 0.49721,-0.240446 -0.67023,-0.252699 -0.71411,-0.0075 -1.33773,-0.114981 -1.38596,-0.238746 -0.12444,-0.319494 -1.96474,-0.488901 -1.96474,-0.180867 -1e-5,0.171963 -0.0932,0.177127 -0.31782,0.01757 -0.35123,-0.249482 -4.11431,-0.406334 -4.37595,-0.182415 -0.0904,0.07736 -0.40039,0.13114 -0.68833,0.119371 -0.45829,-0.01877 -0.44505,-0.04305 0.10493,-0.193778 0.45435,-0.124562 0.17621,-0.174501 -1.00511,-0.178804 -1.07321,-0.0042 -1.46089,0.05351 -1.13069,0.167946 0.29337,0.101694 -0.70064,0.162587 -2.38744,0.146247 -1.66805,-0.01616 -2.9167,0.05938 -2.95331,0.1788 -0.038,0.122558 1.18982,0.222603 3.01532,0.245463 3.23842,0.0405 4.37751,0.253541 4.37751,0.819071 -3e-5,0.187852 -0.0936,0.341707 -0.20928,0.341582 -0.11519,-2e-6 -0.20981,-0.164258 -0.20981,-0.365352 0,-0.284371 -0.0667,-0.308215 -0.30128,-0.107489 -0.16585,0.141953 -0.75953,0.251182 -1.31929,0.24288 -0.74948,-0.01113 -0.88738,-0.05881 -0.52246,-0.180863 0.44492,-0.148808 0.42602,-0.177025 -0.1881,-0.277501 -0.47358,-0.07747 -0.6842,-0.02183 -0.6842,0.180865 2e-5,0.161039 -0.11978,0.292486 -0.26613,0.29249 -0.14636,-3e-6 -0.20235,-0.08809 -0.12453,-0.195852 0.0795,-0.11014 -0.60187,-0.200176 -1.55599,-0.205674 -1.49212,-0.0086 -4.381,-0.112028 -7.10034,-0.254249 l -0.87953,-0.04599 0.87953,-0.139011 c 0.48375,-0.07654 1.73357,-0.136324 2.77709,-0.133324 1.80218,0.0058 1.89706,-0.01784 1.89705,-0.47749 -2e-5,-0.417359 -0.13974,-0.487908 -1.01751,-0.513147 -0.66005,-0.019 -0.80498,-0.06371 -0.41186,-0.127119 0.46903,-0.07566 0.52625,-0.141138 0.25165,-0.289907 -0.47619,-0.257983 -0.55732,-0.249672 -1.12344,0.116789 -0.34354,0.222386 -1.1198,0.313026 -2.62413,0.305925 -1.17482,-0.0056 -1.96639,-0.05862 -1.75906,-0.117821 0.20732,-0.05918 0.53454,-0.15054 0.72709,-0.203088 0.19251,-0.05256 0.29847,-0.1395 0.23564,-0.193271 -0.22477,-0.192368 -3.06557,0.318016 -3.25872,0.585494 -0.15153,0.20985 -0.271712,0.187308 -0.520894,-0.09818 -0.290907,-0.333301 -0.619877,-0.35306 -3.214274,-0.191202 -2.055021,0.128209 -2.490756,0.19635 -1.507919,0.236161 l 1.382345,0.05633 -1.219048,0.175183 c -0.670347,0.09626 -1.404939,0.244772 -1.632974,0.330213 -1.043976,0.391163 -1.529753,0.326012 -1.691887,-0.226861 -0.166929,-0.569222 -0.70018,-0.723339 -1.011306,-0.292492 -0.122179,0.169216 -0.0445,0.206545 0.236676,0.114208 0.229993,-0.07553 0.418063,-0.05054 0.418062,0.05581 0,0.272855 -0.839386,0.343241 -3.01532,0.252181 -1.284298,-0.05375 -1.724823,-0.134581 -1.382344,-0.253731 0.396508,-0.137948 0.290722,-0.18622 -0.502296,-0.228406 -2.325276,-0.123667 -3.874079,0.164544 -2.827218,0.526066 0.172765,0.05965 -0.195048,0.102918 -0.817004,0.09612 -0.62198,-0.0068 -0.876321,-0.05415 -0.56534,-0.105423 1.111157,-0.183163 0.54685,-0.515226 -0.79685,-0.468705 -1.391135,0.04817 -3.308558,0.560185 -2.281515,0.609264 0.489637,0.02339 0.490136,0.03056 0.02222,0.263033 -0.379257,0.188425 -0.543391,0.164307 -0.781348,-0.1142 -0.377399,-0.441695 -0.908257,-0.463988 -0.713653,-0.02997 0.125124,0.279079 -0.439202,0.322462 -4.181137,0.322462 -3.357429,-10e-7 -4.29893,-0.06006 -4.205429,-0.268717 0.147008,-0.327871 0.24209,-0.319281 -5.84667,-0.529685 -2.695171,-0.09312 -6.144301,-0.102313 -7.664651,-0.02015 -1.520359,0.08216 -4.517239,0.163766 -6.65954,0.181386 -2.142309,0.01764 -5.406129,0.168769 -7.253309,0.33538 -1.847191,0.166606 -4.674661,0.36417 -6.28282,0.439249 -1.60816,0.07508 -3.121741,0.223433 -3.36362,0.329696 -0.504201,0.221511 -0.58371,1.043761 -0.137971,1.425235 0.234541,0.200721 0.206691,0.258383 -0.125583,0.258382 -0.47429,0 -0.57298,0.327721 -0.163809,0.544153 0.165361,0.08744 0.17661,0.232475 0.02997,0.389124 -0.268431,0.286748 -0.487602,2.048757 -0.66507,5.34851 l -0.124031,2.302702 z M 129.46438,81.9447 c 0.17276,-0.05965 0.031,-0.108076 -0.3142,-0.108002 -0.34554,0 -0.48695,0.04831 -0.31419,0.108004 0.17277,0.05968 0.45562,0.05968 0.62839,10e-7 z M 74.528714,81.744712 c -0.03019,0.01425 -0.113374,-0.03348 -0.260448,-0.137981 -0.200339,-0.1423 -0.930222,-0.234779 -1.63608,-0.207223 -0.70099,0.02737 -1.351691,-0.0159 -1.44539,-0.09612 -0.09374,-0.08021 0.57183,-0.145728 1.47846,-0.145728 1.29658,0 1.68211,0.07527 1.80661,0.352951 0.06436,0.143542 0.08703,0.219841 0.05685,0.234094 z m 54.417346,-0.225308 c 0.20047,-0.06866 0.14082,-0.119926 -0.15193,-0.13022 -0.26493,-0.0093 -0.4132,0.0417 -0.32969,0.113169 0.0835,0.07152 0.30021,0.0792 0.48161,0.01705 z m -14.39033,-0.169501 c 0.0683,0.0099 0.1383,-0.0078 0.19378,-0.05529 0.11096,-0.09497 -0.0177,-0.309736 -0.28578,-0.477491 -0.26806,-0.167757 -0.66354,-0.302389 -0.879,-0.298691 -0.29303,0.0049 -0.26535,0.06818 0.11058,0.250631 0.27643,0.134156 0.58134,0.34631 0.67748,0.471288 0.0481,0.06248 0.11469,0.09967 0.18295,0.109554 z m -53.057745,-0.01447 c -0.13801,0.0034 -0.301461,-0.03269 -0.498679,-0.108008 -0.525761,-0.200757 -0.50512,-0.218178 0.277499,-0.237195 0.616981,-0.01502 0.770441,0.04321 0.567932,0.216519 -0.09635,0.08248 -0.20874,0.125313 -0.34675,0.128675 z m 21.826054,-0.04961 c -0.214485,0.05765 -0.516613,0.05053 -0.866613,-0.03152 l -0.676962,-0.158646 0.628387,-0.162781 c 0.90113,-0.233198 1.256253,-0.234218 1.256254,-0.0031 -2e-6,0.176114 -0.126575,0.298401 -0.341065,0.356051 z m -1.905825,-0.128157 c -0.146371,-4e-6 -0.266134,-0.0972 -0.266135,-0.215491 5e-6,-0.118285 0.05015,-0.214967 0.111106,-0.214974 0.06096,-3e-6 0.180714,0.09669 0.266134,0.214974 0.08542,0.118289 0.03527,0.21549 -0.111109,0.21549 z m 2.692341,-0.01292 c -0.127572,10e-7 -0.193787,-0.06784 -0.193787,-0.202571 4e-6,-0.118283 0.254362,-0.213157 0.565341,-0.211357 0.457222,0.0027 0.492917,0.04277 0.188101,0.211356 -0.243602,0.134737 -0.432082,0.202572 -0.559655,0.202572 z m 28.028785,-0.03927 c 0.017,0.01397 0.10928,0.01188 0.27853,-0.0057 0.26498,-0.02748 0.52789,-0.195156 0.58445,-0.372588 0.0661,-0.207511 0.0291,-0.238466 -0.10438,-0.0863 -0.11417,0.130136 -0.37765,0.29779 -0.58497,0.372588 -0.13244,0.04776 -0.19063,0.07803 -0.17364,0.09198 z m -52.414895,-0.01395 c -0.243841,0.05435 -0.581301,0.05016 -0.751891,-0.0083 -0.165899,-0.05849 0.02966,-0.102975 0.44235,-0.0987 0.414631,0.0044 0.554039,0.05247 0.309541,0.10697 z M 85.4097,80.942181 c -0.146368,-3e-6 -0.196523,-0.09669 -0.111103,-0.214974 0.08542,-0.118293 0.205154,-0.214974 0.266132,-0.214974 0.06096,-3e-6 0.111105,0.09668 0.111106,0.214974 -5e-6,0.118285 -0.119761,0.214975 -0.266135,0.214974 z m 10.868588,-0.0031 c -0.491172,0.0019 -0.768174,-0.08484 -0.676444,-0.211876 0.19511,-0.270185 0.642181,-0.270185 1.13068,0 0.285285,0.157753 0.175109,0.209473 -0.454236,0.211873 z m 24.390762,-0.05994 c -0.31099,0.05127 -0.82022,0.05127 -1.1312,-10e-7 -0.31099,-0.05126 -0.0566,-0.09301 0.56534,-0.09302 0.62198,10e-7 0.87684,0.04175 0.56587,0.09302 z m -23.121072,-0.02739 c -0.07993,-0.06839 -0.0066,-0.12454 0.162781,-0.12454 0.169368,-4e-6 0.238381,-0.09668 0.152961,-0.214974 -0.0899,-0.1245 0.141734,-0.21109 0.550355,-0.206189 l 0.705899,0.0083 -0.713134,0.330729 c -0.392306,0.181949 -0.778943,0.275106 -0.858862,0.206706 z m -11.096997,-0.02791 c -0.171428,-0.0032 -0.304146,-0.03704 -0.379822,-0.101803 -0.158809,-0.135935 0.103699,-0.203212 0.747757,-0.191204 0.980985,0.01827 0.984042,0.02054 0.244947,0.209291 -0.23124,0.05906 -0.441456,0.08691 -0.612882,0.08372 z m 23.703979,-0.0124 c 0.0911,-0.01495 0.1478,-0.05078 0.14779,-0.104386 -5e-5,-0.107228 -0.22586,-0.194817 -0.50229,-0.194821 -0.27643,4e-6 -0.50281,0.03681 -0.50281,0.08217 -4e-5,0.04533 0.22638,0.132952 0.50281,0.194824 0.13821,0.03093 0.2634,0.03717 0.3545,0.02222 z m -15.417664,-0.08423 c -0.284588,4e-6 -0.517282,-0.09668 -0.517279,-0.214977 -4e-6,-0.118293 0.162571,-0.214974 0.361734,-0.214974 0.199164,-3e-6 0.432378,0.09668 0.517799,0.214971 0.08542,0.118289 -0.07766,0.214976 -0.362252,0.214975 z m 42.501284,-0.49817 c 0.20047,-0.06865 0.14134,-0.119923 -0.15141,-0.130224 -0.26494,-0.0093 -0.41372,0.04171 -0.33022,0.113172 0.0835,0.07152 0.30022,0.0792 0.48163,0.01705 z m -6.64352,-0.36535 c -0.38009,0.0018 -0.69092,-0.09358 -0.69092,-0.211875 -2e-5,-0.271944 0.51344,-0.27194 1.00511,0 0.29373,0.162458 0.22432,0.209475 -0.31419,0.211875 z m 5.87457,-0.05323 c 0.31914,-0.01334 0.47078,-0.06014 0.47078,-0.140561 10e-6,-0.14879 -0.74388,-0.233063 -2.05208,-0.233061 -1.12874,0 -2.00524,0.03638 -1.94768,0.08113 0.0576,0.04476 0.98091,0.149958 2.05207,0.23358 0.67101,0.05238 1.15778,0.07225 1.47691,0.05891 z m -9.94306,-0.373622 c 0.21546,-4e-6 0.32158,-0.09668 0.23616,-0.214975 -0.0854,-0.118292 -0.26165,-0.215488 -0.39171,-0.215488 -0.13005,0 -0.23667,0.0972 -0.23667,0.215491 -1e-5,0.118287 0.17674,0.214971 0.39222,0.214972 z m -9.12451,-0.287838 c -0.17276,0.05968 -0.45562,0.05968 -0.62838,0 -0.17277,-0.05965 -0.0313,-0.108514 0.31419,-0.10852 0.34553,10e-7 0.48696,0.04884 0.31419,0.108516 z m -1.39319,-0.0078 c -0.0456,0.01719 -0.10815,0.0097 -0.17725,-0.02687 -0.13821,-0.07311 -0.25167,-0.175704 -0.25167,-0.227893 0,-0.05216 0.11344,-0.09458 0.25167,-0.09457 0.13821,1e-6 0.25114,0.102109 0.25114,0.227377 -10e-6,0.06263 -0.0284,0.104767 -0.0739,0.121959 z m 25.26615,-0.08837 c 1.19667,0.06458 1.69009,-0.171197 0.62839,-0.30024 -0.31098,-0.03783 -1.07406,-0.02553 -1.69602,0.02739 -1.18201,0.100539 -0.93066,0.165011 1.06763,0.27285 z m -28.36932,-0.07131 c -0.46828,-0.01627 -0.55733,-0.06046 -0.25528,-0.127125 0.29756,-0.06568 0.42156,-0.239218 0.34623,-0.485759 -0.0882,-0.288576 0.0304,-0.383445 0.47904,-0.383438 0.32808,3e-6 0.59685,0.0846 0.59686,0.188096 10e-6,0.1035 -0.1665,0.188103 -0.36949,0.188104 -0.2248,-2e-6 -0.31238,0.125945 -0.22427,0.322461 0.10908,0.243275 -0.0317,0.316497 -0.57308,0.297657 z m 9.02477,-0.05994 c -0.0612,-0.05235 0.12467,-0.20333 0.41289,-0.335379 0.28845,-0.132101 0.52452,-0.150173 0.52452,-0.04031 -1e-5,0.221037 -0.76153,0.526217 -0.93741,0.375687 z m -1.26556,-0.0155 c -0.22802,-0.04284 -0.46858,-0.190198 -0.51728,-0.403593 -0.0447,-0.195841 0.0123,-0.348306 0.12604,-0.339011 0.49117,0.04031 0.83509,0.254076 0.83509,0.51935 4e-5,0.204257 -0.21587,0.266083 -0.4439,0.223241 z M 92.209286,78.576387 c -0.552853,0 -1.005106,-0.08093 -1.005108,-0.179829 -3e-6,-0.0989 0.452253,-0.194894 1.005106,-0.213425 0.552854,-0.01854 1.005107,0.0624 1.005106,0.179839 -4e-6,0.117432 -0.452252,0.213423 -1.005106,0.213423 z m -1.821594,-0.0031 c -0.457223,-0.0027 -0.493438,-0.04329 -0.188619,-0.211873 0.487203,-0.269465 0.753959,-0.269465 0.753958,0 4e-6,0.118292 -0.254359,0.213673 -0.565339,0.211873 z m 25.751918,-0.0098 c -0.12757,1e-6 -0.31606,-0.06732 -0.55966,-0.202056 -0.30482,-0.168618 -0.2686,-0.209474 0.18862,-0.211873 0.31098,-0.0018 0.56534,0.09358 0.56534,0.211869 3e-5,0.134741 -0.0667,0.202063 -0.1943,0.202056 z m -21.465358,-0.0124 c -0.510151,0.014 -0.997202,-0.07136 -1.08262,-0.189655 -0.174161,-0.241173 0.148831,-0.241173 1.256254,-10e-7 l 0.753959,0.164328 z m -6.805787,-10e-7 c -0.134088,6e-6 -0.182416,-0.06344 -0.182417,-0.189651 -4e-6,-0.118293 0.310824,-0.208288 0.690914,-0.199988 0.612368,0.01339 0.633979,0.0362 0.188618,0.199988 -0.343195,0.126216 -0.563028,0.189652 -0.697115,0.189651 z m 19.847365,-0.05529 c -0.0455,0.0172 -0.10815,0.0097 -0.17725,-0.02687 -0.13821,-0.07311 -0.25114,-0.175186 -0.25114,-0.227377 0,-0.05216 0.11295,-0.09507 0.25114,-0.09508 0.13821,10e-7 0.25115,0.102619 0.25115,0.227893 -1e-5,0.06263 -0.0284,0.104248 -0.074,0.121425 z m 20.68039,-0.134357 c -0.13821,-10e-7 -0.25114,-0.09669 -0.25114,-0.214973 2e-5,-0.118283 0.11289,-0.214986 0.25114,-0.214975 0.13822,4e-6 0.25115,0.09669 0.25115,0.214974 -2e-5,0.118287 -0.11289,0.214985 -0.25115,0.214974 z m -0.75396,0 c -0.13821,-10e-7 -0.25114,-0.09669 -0.25114,-0.214973 2e-5,-0.118282 0.11289,-0.214985 0.25114,-0.214976 0.13822,4e-6 0.25167,0.09669 0.25166,0.214973 -10e-6,0.118289 -0.1134,0.214986 -0.25166,0.214976 z m -16.71112,0 c -0.20732,10e-7 -0.37725,-0.09663 -0.37724,-0.214976 1e-5,-0.118281 0.16992,-0.214972 0.37724,-0.214972 0.20732,-3e-6 0.37672,0.0967 0.37672,0.214974 -2e-5,0.118287 -0.1694,0.214973 -0.37672,0.214974 z m 21.68911,-0.03359 c -0.78657,0.01858 -1.50001,-0.06309 -1.58543,-0.181384 -0.0854,-0.118282 -0.007,-0.199968 0.17364,-0.181383 0.18092,0.01858 0.89436,0.100265 1.58543,0.181383 l 1.25677,0.14728 z m -6.81457,-0.184483 c -0.40737,0.0019 -0.6405,-0.08776 -0.55087,-0.211876 0.19284,-0.267038 0.39672,-0.267039 0.87954,-10e-7 0.29268,0.161908 0.21944,0.209474 -0.32867,0.211875 z M 89.253911,77.653472 c -0.312597,0.05148 -0.765359,0.04918 -1.005623,-0.0047 -0.240259,-0.05384 0.01556,-0.09594 0.56844,-0.09354 0.552855,0.0024 0.749771,0.04674 0.437184,0.09819 z m 27.880989,-0.0052 c -0.18141,0.06209 -0.39812,0.05441 -0.48163,-0.01705 -0.0836,-0.07145 0.0648,-0.122471 0.3297,-0.113173 0.29275,0.01032 0.35239,0.06157 0.15193,0.13023 z m -7.46621,-0.12299 c -0.86762,-0.0026 -1.73541,-0.04495 -1.8278,-0.124025 -0.0741,-0.06342 0.75081,-0.115237 1.83348,-0.115239 1.08267,10e-7 1.90229,0.0571 1.82108,0.126608 -0.0918,0.07849 -0.95914,0.115288 -1.82676,0.112656 z m 4.2478,-0.0047 c -0.74428,-0.01345 -1.48971,-0.06604 -1.58233,-0.14521 -0.0576,-0.04921 0.66784,-0.0894 1.6123,-0.0894 0.94446,10e-7 1.64037,0.06613 1.54616,0.14676 -0.0887,0.07592 -0.83185,0.101299 -1.57613,0.08785 z m 28.09699,-0.302822 c 0.20047,-0.06866 0.14082,-0.119925 -0.15193,-0.13022 -0.26494,-0.0093 -0.41319,0.04171 -0.32969,0.11317 0.0835,0.07152 0.30022,0.0792 0.48162,0.01705 z m -0.24856,-0.586528 c 0.1768,0.0043 0.4364,-0.05656 0.67334,-0.185001 0.19041,-0.103252 0.27416,-0.287256 0.18607,-0.409269 -0.0949,-0.131398 -1.12278,-0.207156 -2.52078,-0.185519 -2.78036,0.04299 -2.99461,0.35915 -0.24341,0.35915 1.19251,0 1.82738,0.07889 1.72911,0.214976 -0.0953,0.131899 -0.001,0.201341 0.1757,0.20567 z m -0.99219,-0.05374 c 0.31098,-0.05127 0.0566,-0.09352 -0.56534,-0.09353 -0.62198,-1e-6 -0.87632,0.04226 -0.56534,0.09353 0.31098,0.05126 0.8197,0.05127 1.13068,0 z m -63.829697,-0.0093 c -0.17277,0.05969 -0.455613,0.05969 -0.628384,0 -0.172765,-0.05965 -0.03134,-0.108519 0.314193,-0.10852 0.345528,-10e-7 0.486956,0.04883 0.314192,0.108516 z m 5.465817,-0.142627 c -0.138208,-1e-6 -0.251149,-0.09668 -0.251147,-0.214974 4e-6,-0.118284 0.112938,-0.214975 0.251148,-0.214974 0.138214,2e-6 0.251147,0.09669 0.251146,0.214974 4e-6,0.118293 -0.112928,0.214975 -0.251147,0.214974 z m 52.52134,-0.0078 c 1.17482,0.07393 2.24324,0.05726 2.37453,-0.03669 0.13131,-0.09395 -0.82966,-0.154361 -2.13578,-0.134358 l -2.37505,0.03669 z m -17.0248,-0.0057 c -0.11273,0.03086 -0.26341,-0.01404 -0.41548,-0.144177 -0.17712,-0.151589 -0.9502,-0.193825 -6.18205,-0.339513 -1.31302,-0.03657 -2.99994,-0.0846 -3.7486,-0.10697 -0.74866,-0.02238 -1.28906,-0.102291 -1.20149,-0.177252 0.22064,-0.18884 3.05979,-0.212113 6.20686,-0.05116 1.45124,0.07422 3.28875,0.14672 4.08347,0.161231 1.1032,0.02012 1.44488,0.102518 1.44488,0.348819 -5e-5,0.171744 -0.0749,0.278177 -0.18759,0.309024 z m 4.62349,-0.05943 c -1.06849,0.05176 -3.2376,-0.105896 -3.49488,-0.326078 -0.18261,-0.156276 -0.002,-0.211309 0.5917,-0.181386 0.46995,0.02368 1.4484,0.07221 2.17403,0.108003 0.72561,0.03575 1.3193,0.158132 1.3193,0.272332 -10e-6,0.06921 -0.23398,0.109867 -0.59015,0.127124 z M 89.311271,76.205356 c -0.324007,-0.0062 -0.64861,-0.07561 -0.741032,-0.203632 -0.08785,-0.121662 0.216201,-0.196811 0.728637,-0.180351 0.483878,0.01557 0.821019,0.109473 0.749315,0.20875 -0.08991,0.124511 -0.412899,0.181384 -0.736906,0.175183 z m -15.901867,-0.06304 c -0.181409,0.06216 -0.398649,0.05493 -0.48215,-0.01654 l 10e-7,-5.16e-4 c -0.08351,-0.07144 0.06531,-0.121955 0.330219,-0.112655 0.29275,0.01032 0.35238,0.06106 0.151929,0.129712 z M 97.72316,75.995555 c -0.13005,0 -0.236677,-0.09669 -0.236677,-0.214974 -4e-6,-0.118293 0.176231,-0.214974 0.391707,-0.214974 0.215461,-5e-6 0.322099,0.09668 0.236679,0.214974 -0.08542,0.118288 -0.261649,0.214974 -0.391709,0.214974 z m 31.27716,-0.0052 c -0.86847,-5.39e-4 -1.79246,-0.07079 -2.11511,-0.209805 -0.27455,-0.11829 -0.72384,-0.311665 -0.99839,-0.429949 -0.32722,-0.140985 -0.5185,-0.19555 -0.61495,-0.190169 0.37558,-0.144006 0.89556,-0.233803 2.05724,-0.267684 1.13985,-0.03325 2.07222,-0.137422 2.07222,-0.231511 -4e-5,-0.09411 0.16992,-0.171049 0.37724,-0.171051 0.35617,5e-6 0.49675,0.381925 0.38757,1.051099 -0.0315,0.193017 0.0954,0.250764 0.36019,0.163817 0.2385,-0.07833 0.34484,-0.04599 0.25528,0.07803 -0.10014,0.138793 -0.91282,0.207764 -1.78129,0.207222 z m -36.228279,-0.05788 c -0.312594,0.05148 -0.764848,0.0497 -1.005106,-0.0041 -0.240265,-0.05384 0.01507,-0.09593 0.567925,-0.09353 0.552853,0.0024 0.749771,0.04621 0.437182,0.09767 z m 8.434109,-0.03307 c -0.30607,0.0078 -0.6719,-0.02212 -0.91054,-0.09457 -0.0444,-0.01346 0.0888,-0.169317 0.29611,-0.34675 0.20732,-0.177432 0.52687,-0.32116 0.70952,-0.319359 0.24526,0.0024 0.23345,0.05737 -0.0449,0.211363 -0.32213,0.17819 -0.31329,0.208874 0.0625,0.211874 0.24187,0.0018 0.43976,0.09447 0.43976,0.205677 -3e-5,0.07855 -0.24635,0.123946 -0.55242,0.131776 z m -2.352309,-0.01499 c -0.06833,-0.0153 -0.110588,-0.0533 -0.110587,-0.11059 3e-6,-0.114572 0.169403,-0.208256 0.376721,-0.208256 0.20732,-10e-7 0.377237,0.03771 0.377239,0.08423 -3e-6,0.04649 -0.169919,0.140166 -0.377238,0.208256 -0.103663,0.03404 -0.197811,0.04167 -0.266133,0.02635 z m 6.297289,-0.10387 c -0.34554,-10e-7 -0.62838,-0.09668 -0.62838,-0.214973 1e-5,-0.118288 0.28285,-0.215491 0.62838,-0.215491 0.34553,0 0.62838,0.0972 0.62839,0.215491 -2e-5,0.11829 -0.28286,0.214972 -0.62839,0.214973 z m -1.38183,10e-7 c -0.27643,5e-6 -0.50281,-0.09668 -0.50281,-0.214973 10e-6,-0.118287 0.22639,-0.215489 0.50281,-0.21549 0.27644,-5e-6 0.5023,0.09721 0.5023,0.215486 -2e-5,0.118288 -0.22587,0.214973 -0.5023,0.214974 z m -1.49293,0 c -0.14637,-5e-6 -0.26613,-0.09668 -0.26614,-0.214976 2e-5,-0.118287 0.0495,-0.215528 0.11055,-0.215502 0.061,2e-6 0.18071,0.0972 0.26613,0.215491 0.0854,0.118288 0.0358,0.214972 -0.11061,0.214969 z m 26.32346,-0.02584 0.67593,-0.02532 -0.75396,-0.164329 c -0.41464,-0.0903 -0.78874,-0.175635 -0.83148,-0.189654 -0.0427,-0.01404 -0.008,0.07135 0.0775,0.189652 0.0854,0.118285 0.46006,0.203672 0.83199,0.189658 z m -4.66432,-0.04703 c -0.17277,0.05969 -0.45509,0.05969 -0.62786,-1e-6 -0.17277,-0.05965 -0.0313,-0.108513 0.31419,-0.10852 0.34555,6e-6 0.48644,0.04885 0.31367,0.108521 z m -3.70623,-0.142109 c -0.31596,2e-6 -0.63126,-0.125798 -0.70021,-0.279573 -0.0872,-0.194431 0.12637,-0.27957 0.70021,-0.27957 0.57384,10e-7 0.78688,0.08514 0.6997,0.279573 -0.0689,0.15376 -0.38373,0.27957 -0.6997,0.27957 z m -29.594058,-0.06098 c -0.380735,0.04921 -0.942383,0.04743 -1.25212,-0.0031 -0.2999,-0.05062 0.0034,-0.09119 0.690396,-0.0894 0.691068,0.0016 0.943708,0.04306 0.561724,0.0925 z m 28.007588,-0.0072 c -0.1814,0.0621 -0.39812,0.05441 -0.48162,-0.01705 -0.0836,-0.07145 0.0648,-0.12247 0.3297,-0.113173 0.29274,0.01032 0.3524,0.06158 0.15192,0.130227 z m -26.637646,0 c -0.181405,0.0621 -0.398114,0.05441 -0.481624,-0.01705 -0.0835,-0.07143 0.06479,-0.122473 0.329696,-0.113172 0.292749,0.01032 0.352394,0.06157 0.151927,0.130229 z m 50.259466,-5.17e-4 c 0.20047,-0.06866 0.14082,-0.119407 -0.15192,-0.129711 -0.26495,-0.0093 -0.41322,0.0417 -0.32971,0.113171 0.0835,0.07152 0.30021,0.07868 0.48163,0.01654 z M 115.83937,75.4514 c -0.1385,-0.02738 -0.25942,-0.107672 -0.25943,-0.221177 0,-0.05216 0.17624,-0.09508 0.39172,-0.09508 0.21548,10e-7 0.32091,0.09837 0.23409,0.218592 -0.0716,0.09933 -0.22789,0.125057 -0.36638,0.09767 z M 94.220015,75.291202 c -0.276423,0.01783 -0.502811,-0.03534 -0.502811,-0.117822 0,-0.08249 0.226389,-0.270838 0.502811,-0.418579 0.432509,-0.23118 0.502295,-0.214535 0.502297,0.117819 -2e-6,0.23202 -0.200349,0.399129 -0.502296,0.418579 z m 18.642795,-0.0088 c -0.18142,0.0621 -0.39813,0.05442 -0.48163,-0.01705 -0.0835,-0.07142 0.0648,-0.122471 0.3297,-0.113171 0.29275,0.01031 0.35238,0.06157 0.15192,0.130228 z m -14.057027,-0.0047 c -0.172771,0.05969 -0.455099,0.05969 -0.62787,0 -0.172765,-0.05965 -0.03186,-0.108523 0.313677,-0.10852 0.34553,-1e-6 0.486957,0.04884 0.314193,0.108517 z m 9.841257,-0.142628 c -0.19509,-2e-6 -0.3545,-0.138261 -0.3545,-0.307475 -1e-5,-0.169204 -0.25436,-0.349738 -0.56534,-0.401007 -0.40889,-0.06738 -0.33947,-0.101325 0.25115,-0.122473 0.4492,-0.01615 0.82558,-0.0048 0.83612,0.02481 0.18284,0.511289 0.12135,0.806153 -0.16745,0.806147 z m 24.32617,-0.02303 c -0.19593,-2e-6 -0.3049,-0.06406 -0.3049,-0.191722 1e-5,-0.118285 0.3673,-0.208287 0.81649,-0.199988 0.68442,0.01267 0.73538,0.04509 0.3142,0.19999 -0.34714,0.12766 -0.62987,0.191718 -0.82579,0.19172 z m -14.07925,-0.04496 c -0.18082,0.0619 -0.39599,0.05378 -0.48007,-0.01705 -0.081,-0.07091 0.0645,-0.121924 0.32814,-0.112654 0.29275,0.01032 0.3524,0.06106 0.15193,0.129711 z m -13.82138,-10e-7 c -0.18082,0.0619 -0.39598,0.05378 -0.48007,-0.01705 -0.081,-0.07092 0.0644,-0.121919 0.32814,-0.112657 0.29275,0.01032 0.35241,0.06106 0.15194,0.129714 z m 7.82071,-0.277502 c -0.94099,-0.09229 -1.79596,-0.149069 -1.89962,-0.126089 -0.10367,0.02296 -0.18812,-0.05382 -0.1881,-0.170532 -1e-5,-0.212092 1.24955,-0.212241 4.64881,-10e-4 l 1.75906,0.109554 -1.30483,0.177765 c -0.71757,0.09789 -2.07433,0.102598 -3.01532,0.01034 z m 29.63851,-0.11007 0.81648,-0.02532 -0.75344,-0.164335 c -0.41464,-0.09029 -0.78245,-0.175626 -0.817,-0.189655 -0.0344,-0.01399 -0.0631,0.07135 -0.0631,0.189643 -1e-5,0.118281 0.36781,0.203672 0.81701,0.18965 z M 133.799,74.05991 c 0.191,-6e-6 0.41739,-0.09669 0.50281,-0.214976 0.0884,-0.12246 -0.1282,-0.214973 -0.50281,-0.21497 -0.37462,0 -0.59074,0.09251 -0.5023,0.214973 0.0854,0.118285 0.31128,0.214973 0.5023,0.214971 z m -1.27435,-0.164332 c 0.12988,-0.06869 0.0172,-0.198267 -0.25011,-0.287838 -0.3747,-0.125578 -0.28446,-0.169976 0.39377,-0.19327 0.72705,-0.025 0.79218,-0.06218 0.37673,-0.214973 -0.27643,-0.101661 -0.87635,-0.191689 -1.33326,-0.19999 l -0.83044,-0.01499 0.70332,0.517798 c 0.38696,0.284872 0.81013,0.461957 0.93999,0.393258 z m -2.35437,-0.05064 c 0.14636,2e-6 0.196,-0.09668 0.1106,-0.214968 -0.0854,-0.118285 -0.20515,-0.215492 -0.26613,-0.215492 -0.061,8e-6 -0.11063,0.0972 -0.11054,0.215504 -2e-5,0.118287 0.11976,0.214974 0.26613,0.214974 z m -5.86114,-0.06046 c -0.38199,0.04937 -0.94718,0.04793 -1.25626,-0.0031 -0.30908,-0.05105 0.003,-0.09171 0.69453,-0.08992 0.69107,0.0016 0.94372,0.04358 0.56173,0.09302 z m 4.84104,-0.03204 c 0.27643,-5e-6 0.50281,-0.07604 0.50281,-0.168982 -5e-5,-0.09295 -0.22638,-0.168982 -0.50281,-0.168984 -0.27643,4e-6 -0.50281,0.07604 -0.50281,0.168981 5e-5,0.09295 0.22638,0.168982 0.50281,0.168985 z m -12.31346,-0.122474 c -0.1382,2e-6 -0.25166,-0.09668 -0.25166,-0.214973 2e-5,-0.118288 0.11341,-0.214988 0.25165,-0.214975 0.13823,6e-6 0.25116,0.09668 0.25116,0.214975 -10e-6,0.11829 -0.11289,0.214986 -0.25115,0.214973 z m -0.86506,10e-7 c -0.21548,-10e-7 -0.39172,-0.09668 -0.39171,-0.214973 2e-5,-0.118288 0.10667,-0.214963 0.23668,-0.214976 0.13006,3e-6 0.30629,0.09668 0.39171,0.214976 0.0854,0.118293 -0.0212,0.214984 -0.23668,0.214973 z m -23.887948,-0.05323 c -1.658561,0.0018 -2.845917,-0.02895 -2.638599,-0.06821 0.79604,-0.150721 3.935852,-0.195928 4.774903,-0.06873 0.48375,0.07333 -0.477735,0.135143 -2.136304,0.136943 z m 22.631698,-0.161746 c -0.21548,-1e-6 -0.39171,-0.09719 -0.39171,-0.215492 1e-5,-0.118282 0.10606,-0.214988 0.23616,-0.214975 0.13006,2e-6 0.3068,0.09669 0.39222,0.214975 0.0854,0.118292 -0.0212,0.215493 -0.23667,0.215492 z m -2.31821,0 c -0.78321,-2e-6 -1.3578,-0.05695 -1.27641,-0.126609 0.24181,-0.206938 2.7001,-0.260585 2.7001,-0.05891 0,0.102016 -0.64048,0.185519 -1.42369,0.185519 z m -4.60747,-2e-6 c -0.13821,-10e-7 -0.25115,-0.09126 -0.25115,-0.202572 1e-5,-0.111301 0.11293,-0.262282 0.25115,-0.335379 0.13821,-0.07311 0.25167,0.01815 0.25167,0.202572 -3e-5,0.184406 -0.11347,0.335376 -0.25167,0.335379 z m -33.877006,-0.0036 c -0.36622,-0.0028 -0.372909,-0.0322 -0.04806,-0.211873 0.49213,-0.27219 0.824951,-0.27219 0.62839,0 -0.08542,0.118292 -0.346609,0.213674 -0.58033,0.211873 z m 35.447966,-0.0036 c -0.66193,-0.0065 -0.67083,-0.02001 -0.2036,-0.322459 0.62156,-0.402392 0.89452,-0.400383 0.89452,0.0067 -1e-5,0.210212 -0.24061,0.320043 -0.69092,0.315743 z m 25.38088,-0.06563 c 0.17277,-0.05965 0.0312,-0.108583 -0.31419,-0.108516 -0.34553,0 -0.48696,0.04883 -0.31419,0.10852 0.17275,0.05969 0.45562,0.05969 0.62838,0 z m -27.52804,-0.0078 c -0.0455,0.0172 -0.10865,0.0097 -0.17776,-0.02687 -0.13821,-0.0731 -0.25114,-0.175702 -0.25114,-0.227893 0,-0.05216 0.11295,-0.09507 0.25114,-0.09508 0.13821,10e-7 0.25167,0.102623 0.25166,0.227892 -1e-5,0.06263 -0.0284,0.104765 -0.0739,0.121961 z M 76.029394,73.132303 c -0.135929,-0.01319 0.304886,-0.05873 1.227833,-0.145728 3.607821,-0.340063 4.012678,-0.357934 4.648812,-0.200505 l 0.628385,0.155548 -0.628385,0.02532 c -0.345536,0.01378 -1.985145,0.06619 -3.643706,0.116789 -1.384417,0.04223 -2.097009,0.06176 -2.232939,0.04858 z m 16.357659,-0.01292 c -0.04555,0.01719 -0.10866,0.0092 -0.177767,-0.02739 -0.138214,-0.0731 -0.251147,-0.175186 -0.251147,-0.227376 -10e-7,-0.05216 0.112936,-0.09508 0.251147,-0.09508 0.138215,3e-6 0.251149,0.102619 0.251149,0.227893 -10e-7,0.06263 -0.02783,0.104765 -0.07339,0.121955 z m 42.103377,-0.35295 c 0.90015,-0.0023 1.20296,-0.06621 0.95394,-0.201021 -0.20071,-0.108639 -0.44706,-0.154047 -0.54777,-0.100768 -0.10072,0.05327 -0.25424,-0.0012 -0.34106,-0.12144 -0.18124,-0.25097 -0.42472,-0.273034 -0.98702,-0.08837 -0.80822,0.265429 -0.35902,0.514596 0.92191,0.511597 z m -49.631601,-0.01189 c -0.380089,0.0083 -0.690915,-0.0817 -0.690914,-0.199986 4e-6,-0.25243 0.193144,-0.252431 0.879534,0 0.445362,0.1638 0.423749,0.186582 -0.18862,0.199988 z m 2.052072,-0.03307 c -0.144833,-0.01587 -0.229961,-0.05634 -0.22996,-0.118858 -3e-6,-0.311752 1.379513,-0.485887 3.66076,-0.461987 1.096318,0.0115 2.191051,-0.04619 2.432925,-0.128158 0.285819,-0.09687 0.446383,-0.04706 0.457852,0.142631 0.0097,0.160514 0.114794,0.09808 0.233578,-0.138493 0.118779,-0.236582 0.223877,-0.302054 0.233577,-0.145727 0.0099,0.159459 0.265699,0.266956 0.582912,0.244945 1.202115,-0.08334 2.449979,0.01709 2.449979,0.196887 0,0.103507 -1.893964,0.202609 -4.209046,0.220659 -2.315082,0.01801 -4.576854,0.08958 -5.02605,0.158646 -0.237387,0.03651 -0.441696,0.04532 -0.586527,0.02946 z m -3.313492,-0.01809 c -0.244504,0.0545 -0.583307,0.05114 -0.753444,-0.0078 -0.170134,-0.05891 0.02981,-0.10351 0.444419,-0.09922 0.414637,0.0044 0.553534,0.05247 0.309025,0.106966 z m 46.306731,-0.148827 c 0.13822,4e-6 0.25115,-0.0972 0.25114,-0.215493 2e-5,-0.118288 -0.11292,-0.214974 -0.25114,-0.214974 -0.13821,-10e-7 -0.25115,0.09668 -0.25115,0.214975 -2e-5,0.118288 0.11294,0.215493 0.25115,0.215492 z m 1.2082,-0.0036 c 0.36622,-0.0028 0.37291,-0.0322 0.0485,-0.211777 -0.49214,-0.272196 -0.82445,-0.272196 -0.62788,0 0.0854,0.118294 0.34609,0.213673 0.57981,0.211875 z m -34.039785,-0.02481 c -0.06203,-0.01455 -0.04867,-0.05948 0.03721,-0.135392 0.32279,-0.285353 3.643705,-0.511884 3.643705,-0.248564 0,0.108499 -0.59367,0.198188 -1.319299,0.199988 -0.725617,0.0016 -1.602156,0.06332 -1.947685,0.136942 -0.214689,0.04575 -0.351893,0.06156 -0.413927,0.04703 z m 21.204395,-0.03772 c -0.24451,0.0545 -0.58383,0.05114 -0.75396,-0.0078 -0.17014,-0.05891 0.0298,-0.103517 0.44441,-0.09922 0.41465,0.0044 0.55405,0.05247 0.30954,0.10697 z m -15.69724,-0.160194 c -0.18983,-4e-6 -0.31833,-0.06764 -0.31833,-0.203606 2e-5,-0.11828 0.31084,-0.213672 0.69092,-0.211871 0.53851,0.0026 0.60793,0.04941 0.31419,0.211872 -0.24584,0.135969 -0.49694,0.203606 -0.68678,0.203605 z m 40.3102,-0.225308 c 0.24974,-2e-6 0.61049,-0.06481 0.96118,-0.193788 0.42366,-0.15582 0.37674,-0.187246 -0.2992,-0.199988 -0.44104,-0.0083 -0.87163,0.0817 -0.95705,0.199987 -0.0931,0.128987 0.0453,0.193784 0.29507,0.193789 z m -14.74535,-0.255798 c 0.41437,-0.02481 0.75368,-0.117986 0.75396,-0.206706 2.7e-4,-0.08871 -0.3388,-0.161233 -0.75344,-0.16123 -0.41464,10e-7 -0.75396,0.09318 -0.75396,0.206707 2e-5,0.113507 0.33908,0.18604 0.75344,0.161229 z m -79.613746,-0.0057 c -0.1814,0.06209 -0.398119,0.05441 -0.481619,-0.01705 -0.08351,-0.07144 0.06479,-0.122472 0.329689,-0.113172 0.29275,0.01032 0.352401,0.06156 0.151929,0.13023 z M 75.54622,71.67296 c 0.717462,0.0118 1.37444,-0.0755 1.459859,-0.193787 0.183378,-0.253931 -1.209845,-0.253934 -2.136305,0 -0.49623,0.136021 -0.353909,0.176837 0.676445,0.19379 z M 65.006294,71.63575 c -0.5183,0.04639 -1.366349,0.04639 -1.884639,0 -0.518302,-0.04638 -0.09403,-0.08423 0.94258,-0.08423 1.03656,0 1.460359,0.03783 0.942059,0.08423 z m 6.906041,-5.17e-4 -10e-7,-5.16e-4 c 0.451681,-0.04789 0.143011,-0.08768 -0.686258,-0.08888 -0.829221,-0.0012 -1.198751,0.03774 -0.821141,0.08682 0.37761,0.04928 1.055741,0.05044 1.507401,0.0026 z m -4.14652,-0.0067 c -0.244511,0.0545 -0.58383,0.05062 -0.753961,-0.0083 -0.170138,-0.05891 0.03033,-0.103512 0.44494,-0.09922 0.41464,0.0044 0.553531,0.05299 0.309021,0.107483 z m -9.800431,0 c -0.24451,0.0545 -0.58383,0.05062 -0.753959,-0.0083 -0.17014,-0.05891 0.02981,-0.103512 0.44441,-0.09922 0.414639,0.0044 0.554049,0.05299 0.309549,0.10749 z m 1.370971,-0.0026 c -0.18081,0.0619 -0.39599,0.05378 -0.48007,-0.01705 -0.08096,-0.07091 0.06448,-0.121911 0.32814,-0.112654 0.29274,0.01032 0.3524,0.06106 0.151929,0.129712 z m -2.76417,0 c -0.180831,0.0619 -0.39599,0.05378 -0.48007,-0.01705 -0.08095,-0.07091 0.06448,-0.12191 0.32814,-0.112654 0.292749,0.01032 0.3524,0.06106 0.151929,0.129712 z m 59.557605,-0.214974 c -0.18141,0.0621 -0.39813,0.05442 -0.48162,-0.01705 -0.0835,-0.07145 0.0648,-0.121961 0.32969,-0.112654 0.29275,0.01032 0.3524,0.06105 0.15193,0.129711 z m -7.77472,-0.219624 c -0.17276,0.05968 -0.45511,0.05968 -0.62787,-10e-7 -0.17276,-0.05965 -0.0314,-0.10853 0.31419,-0.108521 0.34554,10e-7 0.48645,0.04883 0.31368,0.108525 z m -10.777119,-0.09095 c -0.350352,0.02331 -0.738975,0.0024 -0.891937,-0.08061 -0.210582,-0.114287 0.01166,-0.18062 0.612366,-0.182418 0.518307,-0.0018 0.942063,0.0337 0.942063,0.07906 -10e-7,0.0932 -0.312141,0.160657 -0.662492,0.183968 z m 23.577889,-0.119373 c 0.20047,-0.06866 0.14081,-0.119923 -0.15193,-0.130228 -0.26494,-0.0093 -0.41321,0.0417 -0.3297,0.11317 0.0835,0.07152 0.30021,0.0792 0.48163,0.01705 z m -8.29303,0 c 0.20046,-0.06866 0.14081,-0.119925 -0.15193,-0.13023 -0.26494,-0.0093 -0.41321,0.0417 -0.3297,0.113172 0.0835,0.07152 0.3002,0.0792 0.48163,0.01705 z m -1.25626,10e-7 c 0.20047,-0.06866 0.14082,-0.119925 -0.15193,-0.13023 -0.26494,-0.0093 -0.4132,0.0417 -0.32968,0.113173 0.0835,0.07152 0.30021,0.0792 0.48161,0.01705 z m 11.68973,-0.0124 c 0.0455,-0.01719 0.0739,-0.05933 0.0739,-0.121961 2e-5,-0.125264 -0.11293,-0.227894 -0.25114,-0.227894 -0.13822,-4e-6 -0.25115,0.0429 -0.25115,0.09508 0,0.05216 0.11293,0.154781 0.25115,0.227891 0.0691,0.03655 0.13169,0.04409 0.17725,0.02687 z m -6.69624,-0.134356 c 0.14637,2e-6 0.19653,-0.0972 0.11116,-0.215479 -0.0854,-0.118295 -0.20515,-0.214974 -0.26613,-0.214974 -0.061,7e-6 -0.11111,0.09668 -0.11112,0.21497 -2e-5,0.118289 0.11976,0.215491 0.26613,0.215493 z m -12.53153,-0.218595 c 0.23372,0.0018 0.4949,-0.09358 0.58033,-0.211872 0.19655,-0.27219 -0.13626,-0.272191 -0.62839,0 -0.32483,0.17965 -0.31814,0.208874 0.0481,0.211872 z m 6.41821,-0.06253 c 0.24451,-0.05451 0.10509,-0.10319 -0.30954,-0.107486 -0.41463,-0.0044 -0.61455,0.04033 -0.44441,0.09922 0.17013,0.05897 0.50945,0.06276 0.75395,0.0083 z"
       copytype="single_stretched"
       prop_scale="1"
       scale_y_rel="false"
       spacing="0"
       normal_offset="0"
       tang_offset="0"
       prop_units="false"
       vertical_pattern="false"
       hide_knot="false"
       fuse_tolerance="0" /><inkscape:path-effect
       effect="spiro"
       id="path-effect7"
       is_visible="true"
       lpeversion="1" /></defs><g
     inkscape:label="Layer 1"
     inkscape:groupmode="layer"
     id="layer1"><path
       style="fill:#000000;fill-opacity:1;stroke:none;stroke-width:0.765;stroke-linecap:round"
       d="m 56.893105,99.410143 c 0.112423,-0.136681 0.357377,-0.516477 0.768943,-1.021173 0,0 0,0 0,-10e-7 0.588842,-0.877601 1.530786,-1.83246 3.407096,-3.011467 1.803479,-1.133243 4.346446,-2.356954 7.093115,-3.868536 5.797023,-2.910503 7.97479,-4.26092 11.672881,-5.563847 0.05369,-0.01791 0.10678,-0.03555 0.159287,-0.05292 2.127154,-0.703604 6.615446,-1.946182 10.19005,-0.792806 0.466422,0.137751 0.84895,0.260525 1.119098,0.398816 0,0 1e-6,0 1e-6,0 0.620807,0.265207 1.241678,0.833131 1.784353,1.502249 0.583041,0.723295 1.012988,1.684343 1.339434,2.65998 1.185987,3.1958 0.420136,6.309067 0.294329,6.511657 -0.138488,0.223001 -0.437407,0.970649 -0.641473,1.566121 -0.230809,0.673455 -0.302898,0.970909 -0.09893,0.658182 0.110495,-0.169401 -0.0579,0.96945 -0.679391,3.0615 -0.460943,1.43343 -1.119749,3.07033 -2.162288,5.26078 -1.447518,3.04126 -3.039573,6.14797 -4.030615,8.35899 -0.633882,1.40846 -1.043642,2.43256 -1.136789,2.71473 -0.251525,0.76195 -1.933336,5.12928 -3.354004,9.77405 -0.305449,0.99864 -0.573534,1.92069 -0.804595,2.74437 0,0 0,0 0,0 -1.890508,6.68695 -1.915863,7.98485 -1.767723,8.77971 0.08155,0.4377 0.217251,-0.008 0.53867,-1.49282 0.246954,-1.14101 0.571028,-2.19848 0.704852,-2.36806 0.135509,-0.17175 -0.169283,1.18477 -0.610928,3.00896 -0.77998,3.22168 -0.745269,3.41927 -0.986948,2.36092 -0.12687,-0.55562 -0.276003,-0.74306 -0.348573,-0.41667 -0.06979,0.3139 -0.03101,0.59206 0.08464,0.61722 0.302631,0.0659 -0.02541,1.40674 -0.398641,1.6423 -0.242039,0.15276 -0.269196,0.32491 -0.114846,0.74238 0.129906,0.35135 0.08084,0.85248 -0.134398,1.42994 -0.199318,0.53475 -0.884689,3.75711 -1.318515,7.4264 -0.423637,3.58303 -0.548745,5.96471 -0.659654,7.60167 -0.01423,0.16992 -0.02586,0.30198 -0.03568,0.39417 -0.08143,0.76492 -0.04336,1.47372 0.06718,1.56702 0.109264,0.0922 0.166138,2.53187 0.50805,5.48926 0.35225,3.04699 1.119678,5.60433 1.384201,6.02473 0.275588,0.43796 0.384128,0.83835 0.354866,1.31407 -0.06831,1.1104 0.473483,2.24943 0.788805,1.79342 0.225859,-0.32662 0.08715,-0.0183 2.183982,3.72158 0,0 0,0 0,0 0.332373,0.58447 0.763448,1.28022 1.308732,2.02406 1.246816,1.70084 2.516444,2.8779 3.446194,3.64978 1.76126,1.37964 2.49388,1.73827 2.891921,2.13503 0.426511,0.42543 1.102872,0.80214 1.525293,0.86826 0.477493,0.0748 0.598401,0.16526 0.277473,0.29512 -0.265222,0.10724 -0.03006,0.4965 2.032118,1.11126 1.111847,0.33145 2.828681,0.68578 4.90232,0.70758 2.687387,0.0456 5.127097,-0.30288 7.074997,-0.74087 2.28719,-0.51427 2.33556,-0.68938 2.11631,-0.65137 -1.82554,0.31645 -1.28028,0.16565 -0.31925,-0.13328 1.44476,-0.44942 1.09399,-0.37601 -0.35111,-0.25694 -2.11176,0.17399 -0.56826,-0.003 2.64129,-1.01636 0.10932,-0.0338 0.22153,-0.0688 0.33659,-0.10495 3.5673,-1.12111 7.28998,-2.5698 12.87347,-5.10053 3.18019,-1.44143 5.76644,-2.67833 8.94662,-4.11976 6.25869,-2.81066 9.89874,-4.21822 11.8619,-5.28168 0.76752,-0.41576 1.53974,-0.8252 2.31655,-1.22823 -0.56085,0.1828 -1.12065,0.36896 -1.67938,0.55846 -0.92271,0.31304 -1.64212,0.66526 -1.60354,0.77048 0.0552,0.15052 -2.22294,1.01512 -4.60599,1.92354 -2.35419,0.89741 -4.9025,1.8704 -5.35026,1.89808 -0.23915,0.0148 -0.74957,0.16209 -1.38412,0.39622 -0.57578,0.21333 -1.246,0.4955 -1.92151,0.81512 -1.37743,0.65167 -2.46829,1.12125 -2.41456,1.02085 0.0541,-0.10049 -0.55612,0.16476 -1.35914,0.59265 -0.80336,0.4281 -1.62252,0.75367 -1.81452,0.72133 -0.19197,-0.0324 0.18991,-0.32083 0.84492,-0.64083 0.65481,-0.31991 1.07235,-0.57628 0.93174,-0.57116 -0.35261,0.0128 -2.28972,0.83665 -4.24502,1.71307 -1.92595,0.86325 -3.90781,1.78309 -4.10416,1.99745 -0.11064,0.12083 0.45919,-0.0716 1.26439,-0.44047 0.97146,-0.44498 1.42875,-0.56611 1.37415,-0.3405 -0.0446,0.18438 -0.42474,0.46404 -0.84729,0.62041 -0.42177,0.15607 -0.72247,0.38508 -0.66534,0.51054 0.0705,0.15464 -0.10576,0.24938 -0.55133,0.2913 -0.35742,0.0336 -0.96953,0.18828 -1.34954,0.34021 -0.42748,0.17091 -1.92369,0.71759 -3.55772,1.23768 -2.88644,0.91872 -2.02132,0.5439 -1.13734,0.19789 2.64766,-1.03629 1.96547,-1.20157 -0.74781,-0.21155 -0.82665,0.30163 -1.55987,0.51903 -2.00932,0.61847 -0.25675,0.0577 -0.41236,0.0741 -0.42284,0.0415 -0.007,-0.0217 0.12671,-0.0893 0.37223,-0.19525 0.76479,-0.3274 2.61225,-1.03403 4.70703,-1.91028 2.76715,-1.15751 4.98346,-2.15255 5.0225,-2.06703 0.0391,0.0857 1.34728,-0.47006 2.88522,-1.25354 1.65944,-0.84541 3.23083,-1.53217 3.89555,-1.6815 0.82115,-0.18442 1.12649,-0.3276 1.16927,-0.55078 0.0319,-0.16617 0.43217,-0.48419 0.88967,-0.70529 0.45727,-0.22099 0.79415,-0.51664 0.74912,-0.65906 -0.0654,-0.20716 -0.0144,-0.23196 0.2535,-0.12127 0.1839,0.076 0.62278,8.2e-4 0.97413,-0.16512 0.35208,-0.16629 0.57924,-0.1921 0.50594,-0.0599 -0.0397,0.0716 0.26983,-0.0384 0.79067,-0.26517 0.44107,-0.1916 1.04445,-0.47108 1.7117,-0.79137 0.82867,-0.39775 4.39818,-2.45907 -1.38315,0.13974 -0.18894,0.0849 -0.36244,0.1623 -0.52205,0.23268 -1.63329,0.72172 -1.99791,0.74025 -0.114,-0.24682 0,0 0,0 0,0 0.41697,-0.21813 0.93616,-0.4775 1.54722,-0.76645 1.45334,-0.68724 2.76214,-1.3356 2.87923,-1.46138 0.1197,-0.12877 0.52967,-0.24654 0.9112,-0.26081 0.7263,-0.0272 6.84427,-2.57586 7.35661,-3.06487 0.33795,-0.32256 0.33064,-0.54764 -5.17313,1.63574 -2.45456,0.97383 -3.27841,1.32633 -1.62037,0.48676 2.6513,-1.34253 1.64538,-1.3401 -6.46854,2.20168 -10e-6,0 -10e-6,0 -10e-6,0 -3.03867,1.32696 -7.02739,3.30324 -12.30195,5.63543 -4.3823,1.93767 -7.95889,3.10036 -8.87569,3.2347 -0.19121,0.0281 -0.38244,0.0552 -0.57369,0.0814 -0.21421,0.0293 -0.4285,0.0573 -0.64276,0.084 0.19556,-0.0857 0.39047,-0.17255 0.58474,-0.26028 0.24692,-0.11169 0.49287,-0.22492 0.7379,-0.33963 0.73371,-0.34332 1.12911,-0.57633 0.94079,-0.52231 -0.20245,0.0581 -0.0596,-0.20259 0.29989,-0.57642 0.14832,-0.15396 0.47061,-0.31901 0.70943,-0.47426 -0.0985,0.0651 -0.037,0.12525 0.30656,0.16964 0.49617,0.0641 0.49097,0.19386 -0.0826,0.62345 -0.61636,0.4616 -0.71033,0.53552 0.12282,0.0608 1.89676,-1.08083 2.32211,-1.31286 2.41461,-1.09231 0.0679,0.16174 1.3045,-0.2607 4.05725,-1.56734 2.16385,-1.02709 3.88284,-1.98511 3.83914,-2.07498 -0.0438,-0.0901 0.39786,-0.3037 0.98165,-0.47666 0.5913,-0.17514 2.30123,-0.99663 3.83873,-1.8272 2.54326,-1.3739 2.81203,-1.50021 1.1746,-0.924 -1.5186,0.53439 -1.58788,0.55285 -0.66739,-0.0883 0.52361,-0.3647 1.18886,-0.70177 1.48195,-0.7529 0.31074,-0.0542 0.35799,-0.12376 0.10914,-0.16929 -0.27304,-0.05 -0.0442,-0.25595 0.67715,-0.58873 0,0 0.0127,-0.006 0.0127,-0.006 0.59537,-0.27596 1.42853,-0.72547 1.81727,-0.98355 0.54014,-0.35857 0.6943,-0.37203 0.59938,-0.068 -0.11417,0.36544 0.13902,0.24731 1.77255,-0.65274 1.93818,-1.06791 1.97137,-1.48571 -1.51739,0.0348 -1.59818,0.69662 -2.16588,0.8747 -2.26581,0.65538 -0.15105,-0.33144 0.96227,-0.91794 1.5284,-0.80405 0.67919,0.13665 1.28985,-0.29941 0.60247,-0.4911 -0.35465,-0.0989 -0.90469,-0.008 -1.22334,0.20308 -0.31754,0.21023 -0.75394,0.34975 -0.9693,0.30897 -0.18324,-0.0348 -0.62916,0.069 -1.06267,0.24163 0,0 0,0 0,0 -0.0778,0.0309 -0.15506,0.0639 -0.23029,0.0987 -0.4948,0.2288 -0.72991,0.44683 -0.52844,0.48282 0.2025,0.0362 0.12926,0.17665 -0.1601,0.31247 -0.40002,0.18775 -0.36922,0.25417 0.11282,0.27658 0.48732,0.0224 0.21323,0.27692 -1.2243,1.00122 -0.92903,0.46809 -4.57558,2.20911 -8.26076,3.82454 -1.09377,0.47947 -9.71876,4.01891 -6.31715,2.51349 0.51878,-0.22963 1.17922,-0.68524 1.48267,-1.01957 0.48592,-0.53547 0.55663,-0.57221 0.67543,-0.29998 0.082,0.18786 0.35928,0.15338 0.72915,-0.0951 0.32815,-0.22044 0.45085,-0.43212 0.27686,-0.4696 -0.17407,-0.0374 0.80226,-0.58401 2.16969,-1.24734 1.19978,-0.58201 0.7063,-0.38791 -0.74059,0.22006 -0.99928,0.4199 -5.21263,2.24219 -9.25725,3.43425 -0.66381,0.19147 -1.36972,0.38557 -2.08773,0.56333 -2.20109,0.5449 -3.75024,0.65137 -4.61971,0.60892 -1.081825,-0.0528 -0.432763,-0.14742 0.73227,-0.31717 0.95748,-0.13952 1.84516,-0.39972 1.95812,-0.49374 0.10911,-0.0908 0.46267,-0.12014 0.78978,-0.0698 0.43155,0.0663 0.93791,-0.0906 1.82904,-0.61041 0.93218,-0.54385 1.20038,-0.65773 1.09963,-0.3913 -0.0364,0.0963 0.003,0.1516 0.11917,0.16493 0.15683,0.0169 0.4572,-0.0437 0.89747,-0.1893 0.38064,-0.12592 1.78701,-0.58646 2.01892,-0.65913 0.49181,-0.15413 1.30748,-0.564 1.85266,-0.93445 0.97345,-0.66141 0.64824,-0.50472 -1.22878,0.22572 -1.21324,0.47212 -2.29909,0.74235 -2.42425,0.65264 -0.12697,-0.091 -0.71605,0.005 -1.3635,0.15246 0,0 0,0 0,0 -0.96558,0.21198 -2.02812,0.53475 -1.98071,0.70588 0.0456,0.16449 -0.10645,0.21624 -0.5146,0.15762 -0.47674,-0.0685 -3.92499,0.53175 -5.614389,0.51892 -0.546905,-0.0104 -0.935356,-0.0176 -1.030764,0.0298 -0.134629,0.0668 -0.564494,0.0738 -0.956672,0 -0.711921,-0.13394 -0.485658,-0.13514 0.17144,-0.17085 0.867205,-0.0472 -0.001,-0.11011 -1.25965,-0.42976 -1.178393,-0.29954 -1.804307,-0.61176 -1.385955,-0.27678 0.244819,0.19604 -0.695237,0.0343 -1.748409,-0.88504 0,0 0,0 0,0 -0.190723,-0.13917 -0.388917,-0.30737 -0.594287,-0.51066 -0.826821,-0.81844 -1.58999,-1.98074 -1.990755,-2.56114 -0.280555,-0.39659 -0.44834,-0.63534 -0.498898,-0.6331 -0.05492,0.002 0.03555,0.28175 0.282621,0.75702 0.324212,0.64211 1.030082,1.88318 1.967997,2.79482 0.192703,0.1873 0.381156,0.35042 0.565848,0.4927 1.089535,0.97836 2.653827,1.54382 3.251476,1.79407 0.776339,0.32507 1.123042,0.53416 1.079069,0.80878 -0.02989,0.18636 -0.197127,0.31695 -0.371913,0.28556 -0.174067,-0.0311 -0.281735,-0.22136 -0.24036,-0.41892 0.0595,-0.28411 -0.0322,-0.31534 -0.408916,-0.19914 -0.285469,0.0881 -1.133912,-0.0249 -1.876249,-0.34778 -1.236268,-0.53766 -0.773678,-0.51732 -0.575812,-0.46906 0.72432,0.17668 0.471708,0.0518 -0.08801,-0.36133 -0.492969,-0.36388 -0.717074,-0.50273 -0.840379,-0.32831 -0.09247,0.13084 -0.29583,0.1455 -0.448133,0.0203 -0.02194,-0.018 -0.04062,-0.0361 -0.05606,-0.0537 0,0 0,0 0,0 -0.09674,-0.0994 -0.07565,-0.18362 0.04916,-0.20197 0.151119,-0.0223 -0.499702,-0.57981 -1.33758,-1.65466 -0.36253,-0.46506 -0.763804,-1.05929 -1.21594,-1.84866 -1.328503,-2.26872 -2.160182,-5.12013 -2.492757,-8.7315 -0.04619,-0.50158 -0.08253,-1.00826 -0.110323,-1.51918 0.0896,0.5053 0.187402,1.00397 0.294395,1.49474 0.273958,1.25602 0.433687,2.44298 1.029781,4.46131 0.812302,2.75257 1.076883,2.75242 1.490011,2.55786 0.37511,-0.17668 0.30605,-0.35843 -0.130097,-1.58947 -0.428479,-1.20948 -0.21177,-0.89232 -0.08719,-0.62125 0.30587,0.66547 0.390995,0.6516 0.393408,0.25605 0.0048,-0.77899 -0.01932,-0.80995 -0.604265,-1.56709 -0.319265,-0.41324 -0.768663,-1.61689 -1.026093,-4.05863 -0.222399,-2.11002 -0.145476,-3.18259 -0.102643,-2.98215 0.09729,0.45535 0.17607,0.80813 0.273913,1.22784 0.07496,0.32147 0.176716,0.48841 0.222377,0.37997 0.08285,-0.19674 -0.412046,-4.35752 -0.672152,-5.39491 -0.02914,-0.12819 -0.05725,-0.21594 -0.08407,-0.25267 -0.202519,-0.27738 -0.174599,-0.49659 0.127055,-0.93306 0.448109,-0.64836 0.257869,-0.95295 0.617493,-5.75747 0.220684,-2.94834 0.518611,-5.2527 0.10598,-2.73752 -0.135589,0.82579 -0.259583,1.65242 -0.371403,2.47974 0.02419,-0.73792 0.05804,-1.47718 0.101196,-2.21758 0.06854,-1.17451 0.141008,-2.61673 0.128519,-2.99688 -0.0641,-1.9511 0.191134,-2.82559 0.79237,-3.0077 0.617525,-0.18705 0.967524,-1.10674 0.670794,-1.75389 -0.116005,-0.25296 -0.185397,-0.12673 -0.204474,0.39961 -0.01551,0.42796 -0.110173,0.76005 -0.214373,0.73833 -0.267244,-0.0557 -0.07735,-1.59334 1.028515,-5.46111 0.674257,-2.3582 0.968392,-2.96229 0.917248,-2.39788 -0.07034,0.77621 0.03631,0.53283 0.476062,-0.82821 0.191942,-0.59408 0.372119,-1.16266 0.535625,-1.69145 0.931212,-2.98516 1.41468,-5.02414 0.533628,-3.45379 -0.151813,0.27061 0.0085,-0.36301 0.4026,-1.45814 0.406,-1.12828 0.585647,-1.453 0.451062,-0.94612 -0.623801,2.34919 0.246341,0.75541 0.948776,-1.20873 0.893781,-2.49919 1.732626,-5.70302 0.996512,-4.10164 -0.365683,0.79555 -0.385181,0.83665 -0.257794,-0.0661 0.100596,-0.71286 0.248213,-0.98383 0.678552,-1.26712 0.680898,-0.44826 1.113221,-1.316 0.568413,-1.17571 -0.112869,0.0291 -0.14923,-0.0513 -0.04465,-0.38613 0.333109,-1.06124 0.93089,-2.0962 3.27281,-6.91089 2.179379,-4.48052 3.051119,-6.88395 3.428289,-7.63472 0,0 0,0 0,0 0.13252,-0.25572 0.20417,-0.33153 0.23711,-0.26504 0.10089,0.20382 0.16112,0.37902 0.7098,-1.12447 0.20649,-0.56582 2.11175,-5.622316 1.59846,-12.037011 -0.12755,-1.594015 -0.40762,-3.279793 -0.89518,-5.020541 -0.6274,-2.098967 -1.62688,-4.110343 -2.97893,-5.935671 -1.63363,-2.209631 -3.658815,-3.704475 -5.552144,-4.659649 -0.634776,-0.305726 -1.199644,-0.530993 -1.669494,-0.696571 -0.397456,-0.140067 -0.817617,-0.27229 -1.258412,-0.390369 -4.728393,-1.201889 -9.641561,-1.129405 -14.552617,0.147428 -0.675047,0.175509 -1.380459,0.385633 -2.109239,0.635317 -4.563595,1.505966 -8.878001,3.798641 -11.703341,5.356648 -0.453446,0.250047 -0.959489,0.527908 -1.464674,0.801992 -3.621584,1.819337 -6.658638,3.43588 -9.687844,5.807791 -1.832492,1.434868 -3.238293,2.899041 -4.278076,4.21992 -0.590562,0.799163 -0.948724,1.431886 -1.035884,1.632898 -0.533034,1.229304 0.222632,1.636414 1.015146,1.05111 0.490302,-0.362113 0.434115,-0.212516 0.06797,0.375731 -0.65251,1.048321 -0.237707,1.113547 0.278134,0.589476 0.262729,-0.266961 0.391391,-0.19464 0.366804,0.144793 -0.04589,0.63351 1.276731,1.90939 4.11641,3.610111 0.660507,0.395692 1.32653,0.781302 1.997858,1.156687 0.194902,-0.297705 0.40545,-0.583793 0.629209,-0.855947 z m 64.161215,85.024947 c 0.28977,-0.2029 0.005,-0.1204 -0.61171,0.16644 -0.6187,0.28762 -0.86701,0.45244 -0.52285,0.36086 0.34011,-0.0905 0.84843,-0.3269 1.13457,-0.52729 z m -31.028609,-74.71 c 0.01298,-0.0579 0.126687,-0.17833 0.344857,-0.38138 0.297027,-0.27652 0.996073,-1.46814 1.5221,-2.64663 0.518327,-1.16124 1.025258,-2.2182 1.154476,-2.33161 0.140328,-0.12321 -0.251762,0.98811 -0.961513,2.48908 -1.016715,2.15012 -1.446916,2.79001 -1.801741,2.87819 -0.183447,0.0456 -0.271144,0.0502 -0.258174,-0.008 -2e-6,0 -3e-6,-1e-5 -5e-6,-1e-5 z m 29.914459,74.75958 c 0.33792,-0.23285 0.19843,-0.22305 -0.32929,0.008 -0.48221,0.21152 -0.7332,0.38022 -0.55063,0.37616 0.18215,-0.004 0.57809,-0.17656 0.87991,-0.38457 0,0 10e-6,0 10e-6,-1e-5 z m -30.821164,3.78809 c 0.154647,0.0899 0.325321,0.15409 0.47538,0.17324 0.311016,0.0397 0.07136,-0.29859 -0.443642,-0.75352 -0.435369,-0.3846 -1.403247,-1.16548 -1.759365,-1.40671 -0.478286,-0.32411 -0.7358,-0.44261 0.09319,0.36439 0.488107,0.47515 1.12596,1.1108 1.262765,1.30452 0.08095,0.11455 0.217197,0.22832 0.371699,0.31809 -8e-6,0 -1.6e-5,-1e-5 -2.3e-5,-1e-5 z m 5.788337,-98.774726 c -0.06319,-0.180416 -0.100778,-0.399336 -0.125965,-0.676485 -0.05045,-0.554896 -0.08237,-0.899643 0.354828,0.277566 0.04138,0.111421 0.07651,0.213573 0.105528,0.304619 0.207751,0.598713 0.133554,0.690733 -0.05873,0.516379 -0.116831,-0.105913 -0.20432,-0.23832 -0.272114,-0.41209 0,0 0,0 0,0 -0.0012,-0.0033 -0.0024,-0.0066 -0.0035,-0.01 -3e-6,0 -6e-6,0 -1e-5,0 z M 83.455448,126.06186 c 0.08625,-0.42564 0.293587,-0.99604 0.610291,-1.62952 0.204078,-0.40825 0.410472,-0.81533 0.619228,-1.22115 -0.097,0.41298 -0.191572,0.826 -0.283777,1.23903 -0.396895,1.77679 -0.611608,2.44763 -0.830473,2.37324 -0.166595,-0.0566 -0.201527,-0.33594 -0.115273,-0.7616 10e-7,0 3e-6,0 4e-6,0 z m 1.429455,-3.55351 c 0.105158,-0.27495 0.28304,-0.46447 0.393333,-0.42173 0.110283,0.0427 0.164064,0.1714 0.120124,0.28538 -0.04384,0.11372 -0.220329,0.30355 -0.391621,0.42164 -0.171024,0.11791 -0.227232,-0.01 -0.121832,-0.2853 -10e-7,10e-6 -2e-6,10e-6 -4e-6,10e-6 z m -1.801753,5.09118 c 0.08049,-0.24236 0.187204,-0.34626 0.314875,-0.30343 0.112124,0.0376 0.04011,0.54928 -0.153459,1.13769 -0.280812,0.85345 -0.343575,0.93473 -0.316763,0.29167 0.021,-0.5039 0.07498,-0.88392 0.155347,-1.12593 z m 1.142194,56.67567 c 0.01737,0.0375 0.180304,0.21608 0.496165,0.50935 0.504667,0.46863 1.12166,0.79333 1.352218,0.75263 0.271179,-0.048 0.201292,-0.13218 -0.145048,-0.24136 -0.321432,-0.10133 -0.897649,-0.4237 -1.333121,-0.76284 -0.26632,-0.20743 -0.390445,-0.3015 -0.370217,-0.25781 10e-7,1e-5 2e-6,2e-5 3e-6,3e-5 z M 94.19155,87.259241 c -0.17531,-0.204735 -0.40661,-0.543204 -0.491175,-0.720499 -0.0072,-0.01505 -0.0136,-0.02954 -0.01922,-0.04341 -0.04126,-0.10416 -0.0059,-0.107217 0.09208,-0.01152 0,0 0,0 0,0 0.07392,0.07272 0.182143,0.203515 0.303673,0.390278 0.35396,0.544198 0.236393,0.527299 0.114662,0.385138 z M 82.482831,130.13148 c 0.08667,-0.27916 0.208933,-0.34439 0.271018,-0.14727 0.06218,0.19739 0.08415,0.45364 0.04857,0.56913 -0.006,0.0196 -0.01455,0.0378 -0.02506,0.0544 0,0 0,0 0,0 -0.05166,0.081 -0.151595,0.12231 -0.245519,0.0935 -0.05772,-0.0177 -0.0918,-0.0931 -0.09975,-0.19986 -0.0078,-0.10237 0.0084,-0.23346 0.05075,-0.36986 z m -4.59646,21.28736 c 0.110101,-0.98935 0.271922,-1.52506 0.372957,-1.32887 0.217943,0.42323 0.108116,1.31298 -0.26138,2.26295 -0.206407,0.53076 -0.255196,0.35616 -0.111574,-0.93408 z m 25.683429,38.11942 c -0.72132,0.17899 -1.75734,0.31633 -2.52273,0.32975 -0.91713,0.0161 0.0753,-0.0772 1.25976,-0.23274 1.17871,-0.15481 2.12741,-0.31151 1.26299,-0.097 -1e-5,0 -1e-5,0 -2e-5,0 z M 77.71809,153.9797 c 0.08252,-0.15602 0.124405,-0.001 0.09619,0.33812 -0.02839,0.34177 0.05805,0.48637 0.189036,0.32485 0.14001,-0.17263 0.184195,0.30315 0.12385,1.11998 -0.03482,0.47204 -0.06604,0.9446 -0.0936,1.41766 -0.08498,-0.48375 -0.166092,-0.96879 -0.243397,-1.45505 -0.127872,-0.80428 -0.154866,-1.58915 -0.07211,-1.74556 z m 4.275092,-21.82818 c 0.09992,-0.32689 0.20856,-0.57051 0.314117,-0.69612 0.227247,-0.27039 0.126834,0.26224 -0.238396,1.48174 -0.524877,1.75263 -0.577456,2.0038 -0.336076,0.41141 0.06971,-0.45992 0.160382,-0.86994 0.260351,-1.19703 z m -0.348756,48.06412 c 0.116253,0.17708 0.214211,0.27246 0.260155,0.2452 0.04833,-0.0287 0.01906,-0.17862 -0.0605,-0.39415 -0.0704,-0.19485 -0.183612,-0.44691 -0.32009,-0.71083 -0.287329,-0.55563 -0.535009,-1.00113 -0.57561,-0.98159 -0.04061,0.0194 0.09591,0.51958 0.33203,1.11174 0.11271,0.28264 0.236868,0.5283 0.347699,0.70443 0,0 10e-7,0 10e-7,0 0,0 0,0 0,0 0.0055,0.009 0.01091,0.017 0.01631,0.0252 z m -3.150822,-31.8497 c 0.08192,-0.56657 0.249558,-1.01393 0.366408,-0.99575 0.116849,0.0182 0.162251,0.35463 0.103944,0.74923 -0.05813,0.39344 -0.219435,0.84448 -0.359246,0.99756 -0.139591,0.15284 -0.193258,-0.18287 -0.111101,-0.75103 -2e-6,0 -3e-6,-1e-5 -5e-6,-1e-5 z m 55.296846,28.11063 c 0.31331,-0.2117 0.2003,-0.21984 -0.31346,-0.004 -0.46136,0.19374 -0.69405,0.35497 -0.52237,0.35604 0.17225,0.001 0.54864,-0.15784 0.83583,-0.35191 z m -11.62469,5.1238 c -0.66784,0.32358 -1.259,0.4987 -1.30996,0.39172 -0.11669,-0.24492 0.78963,-0.67709 1.7692,-0.84891 0.58028,-0.10178 0.49029,-0.003 -0.45924,0.45719 z m 10.13022,-4.91621 c 0.54364,-0.26002 0.78672,-0.41818 0.75407,-0.49167 -0.0449,-0.10108 -0.78758,0.14172 -2.086,0.70706 -0.44943,0.19624 -0.96248,0.43044 -1.54097,0.70517 -1.94045,0.92156 -3.44093,1.70286 -3.32171,1.69452 0.11929,-0.008 1.76187,-0.69962 3.63569,-1.49495 0.52134,-0.22128 0.98119,-0.41765 1.37331,-0.58793 0.49169,-0.21284 0.88275,-0.38735 1.18561,-0.5322 z m -17.60582,7.84143 c 0.39625,-0.16492 0.54997,-0.33611 0.34905,-0.37897 -0.20125,-0.043 -0.56138,0.002 -0.79878,0.1001 -0.23775,0.0981 -0.39718,0.26756 -0.35267,0.37693 0.0445,0.10941 0.40667,0.0666 0.8024,-0.0981 z m -18.455137,3.60663 c -0.404765,0.0166 -1.002102,-0.0738 -1.386759,-0.21037 -0.426691,-0.1515 0.01046,-0.0955 0.708769,0.0103 0.697309,0.10566 1.127157,0.18166 0.67799,0.20004 z m -3.056301,-0.61624 c -0.103576,-0.0119 -0.237034,-0.0592 -0.375244,-0.1408 -0.276809,-0.16332 -0.483047,-0.34411 -0.466153,-0.39363 0.0168,-0.0492 0.268882,-0.006 0.560568,0.0851 0.292285,0.0911 0.506188,0.25577 0.473196,0.37684 -0.0165,0.0605 -0.08901,0.0843 -0.19239,0.0725 8e-6,0 1.5e-5,0 2.3e-5,0 z m 47.224628,-15.0191 c 1.6891,-0.58783 3.40939,-1.42039 1.01166,-0.70079 -0.59391,0.1782 -1.89552,0.68419 -3.00063,1.17975 -2.54505,1.14121 -1.08399,0.59047 1.98897,-0.47896 z m -53.367526,11.56667 c -1.129215,-1.02718 -0.528173,-0.62989 -0.344683,-0.48707 0.543432,0.42298 0.867457,0.44655 0.899801,0.159 0.03201,-0.28492 0.204219,-0.25619 0.654533,0.0599 0,0 0,0 0,0 0.117028,0.0799 0.248323,0.17463 0.406933,0.28895 0.571535,0.41192 1.028528,0.77532 0.975838,0.86364 -0.05268,0.0883 -0.409087,-0.0229 -0.783656,-0.27361 -0.405122,-0.2712 -0.645536,-0.30514 -0.597244,-0.0228 0.04135,0.24175 -0.108823,0.26434 -0.607715,-0.0869 0,0 0,0 0,0 -0.164744,-0.12098 -0.369095,-0.28764 -0.603787,-0.50114 -6e-6,0 -1.3e-5,-1e-5 -2e-5,-1e-5 z m 18.752826,3.00139 c -0.1369,-0.0203 0.20235,-0.25826 0.72993,-0.54062 0.52869,-0.28289 0.97668,-0.43961 1.00851,-0.33377 0.0678,0.22539 -1.33465,0.93425 -1.73844,0.87438 z m -2.56918,0.53289 c -0.47949,0.0391 -0.99602,-0.0344 -1.12638,-0.2335 -0.11892,-0.18162 -0.0211,-0.34701 0.209,-0.37128 0.99545,-0.1048 1.72729,-0.0475 1.7813,0.21548 0.0413,0.20061 -0.38541,0.35027 -0.86403,0.38931 4e-5,-1e-5 7e-5,-1e-5 1.1e-4,-1e-5 z m -21.766045,-43.8283 c 0.207348,-1.06855 0.473344,-1.92054 0.570105,-1.89993 0.09678,0.0206 0.0043,0.90754 -0.18397,1.97498 -0.188154,1.06658 -0.419233,1.92699 -0.53476,1.90674 -0.115768,-0.0203 -0.05876,-0.91306 0.148618,-1.9818 2e-6,0 5e-6,1e-5 7e-6,1e-5 z m 0.742398,-3.50467 c 0.205219,-0.88933 0.260357,-0.92075 0.289456,-0.31367 0.04749,0.99054 -0.05858,1.50148 -0.323703,1.44379 -0.115677,-0.0252 -0.103296,-0.53391 0.03425,-1.13012 z m 11.414981,46.77093 c -0.26656,-0.0719 -0.650409,-0.25157 -1.104077,-0.5507 -0.661125,-0.43594 -0.374542,-0.33438 0.450807,-0.0733 0.630417,0.19925 1.138711,0.41705 1.110976,0.53245 -0.03133,0.13065 -0.188128,0.16426 -0.457705,0.0915 z M 80.66396,148.55562 c 0.131734,-0.99832 0.371487,-1.92635 0.517287,-2.07369 0.314861,-0.3182 0.160462,0.34612 -0.378497,2.43884 -0.123961,0.48115 -0.244401,0.96369 -0.361218,1.44762 0.06855,-0.60496 0.142747,-1.20924 0.222428,-1.81277 z m 2.752456,-13.08653 c 0.06897,-0.25406 0.155659,-0.32854 0.277331,-0.29516 0.114168,0.0313 0.03932,0.64128 -0.15784,1.35867 -0.308684,1.12314 -0.350134,1.22705 -0.287057,0.30692 0.04668,-0.681 0.09918,-1.11856 0.167566,-1.37043 z m -1.814462,38.97253 c -0.04627,-0.0831 -0.08022,-0.20769 -0.08968,-0.35375 -0.01895,-0.29236 0.01076,-0.54164 0.06042,-0.55677 0.04954,-0.0151 0.157187,0.19188 0.243955,0.45815 0.08659,0.26576 0.06587,0.51653 -0.05157,0.55692 -0.05872,0.0202 -0.116857,-0.0214 -0.163187,-0.10475 1.9e-5,7e-5 3.8e-5,1.3e-4 5.7e-5,2e-4 z m 36.032626,7.62694 c -0.2459,0.11182 -0.48709,0.11438 -0.5357,0.007 -0.0486,-0.10775 0.1125,-0.28625 0.35754,-0.39772 0.245,-0.11145 0.48535,-0.11554 0.53475,-0.008 0.0494,0.10746 -0.11059,0.28732 -0.35659,0.39917 z m -1.34623,0.6031 c -0.24769,0.1092 -0.48929,0.10903 -0.53655,7.4e-4 -0.0472,-0.10828 0.11638,-0.28489 0.36302,-0.39366 0.2466,-0.10876 0.48821,-0.11085 0.53638,-0.003 0.0482,0.10793 -0.11507,0.28661 -0.36285,0.39584 z m -31.653116,-2.28392 c -0.249657,-0.36647 -0.354737,-0.7221 -0.254371,-0.78486 0.100456,-0.0628 0.367359,0.18548 0.610533,0.54253 0.242051,0.3554 0.378617,0.69878 0.283786,0.76921 -0.09517,0.0706 -0.390168,-0.16023 -0.639948,-0.52688 z m 40.388296,-1.88833 c -1.3577,0.68419 -2.63311,1.21618 -2.8366,1.18144 -0.20086,-0.0343 -0.0994,-0.17415 0.2234,-0.31032 0.1213,-0.0512 1.80384,-0.75356 2.83453,-1.18138 0.74773,-0.31047 1.49428,-0.61945 2.24008,-0.92467 -0.81963,0.40802 -1.63964,0.8207 -2.46141,1.23493 z m -12.14024,5.36793 c -0.74562,0.29895 -1.20285,0.37306 -1.08431,0.19654 0.25989,-0.38702 0.62533,-0.52397 1.6032,-0.63341 0.56906,-0.0637 0.501,0.0281 -0.51889,0.43686 z M 83.604706,138.31832 c 0.0979,-0.61244 0.316291,-1.45108 0.491466,-1.8978 0.181408,-0.46272 0.07401,0.0776 -0.188281,1.0955 -0.257792,1.00043 -0.40662,1.44949 -0.303137,0.80231 -1.6e-5,0 -3.2e-5,-1e-5 -4.8e-5,-1e-5 z m 12.256678,48.24477 c -0.384732,0.008 -0.818379,-0.0801 -0.977289,-0.18735 -0.162931,-0.10991 0.163119,-0.0847 0.688112,0.0103 0.53849,0.0975 0.761286,0.16731 0.289176,0.17704 z m -11.833338,-8.84532 c -0.809586,-1.57599 -1.332982,-3.16423 -1.317181,-3.38995 0.01113,-0.15907 0.545322,1.3787 1.533814,3.29004 0.148791,0.2877 0.295979,0.56087 0.44081,0.82082 0,0 0,0 0,0 0.820405,1.46764 1.54414,2.41635 1.411019,2.3417 -0.161919,-0.0909 -0.906431,-1.00346 -1.613185,-2.22587 0,0 0,0 0,0 -0.156313,-0.27148 -0.308448,-0.5509 -0.455277,-0.83674 z m 5.657187,6.50401 c -0.406907,-0.26015 -0.784988,-0.5359 -1.130336,-0.81929 0,0 0,0 0,0 -0.755374,-0.63127 -1.257694,-1.22149 -1.309394,-1.35347 -0.03408,-0.087 0.499082,0.47044 1.435127,1.19381 0,0 0,0 0,0 0.347955,0.26492 0.739495,0.53945 1.180755,0.81368 1.634105,1.01556 2.984795,1.48013 2.776367,1.49133 -0.229253,0.0123 -1.619113,-0.47357 -2.952519,-1.32606 z m 51.393937,-13.93803 c 0.33244,-0.195 0.21748,-0.20898 -0.31898,-0.0206 -0.48166,0.16913 -0.72791,0.31768 -0.55367,0.32798 0.17482,0.0104 0.56786,-0.12853 0.87265,-0.30734 z m -0.65257,-0.38332 c 0.31996,-0.11482 0.7698,-0.34616 1.15496,-0.62255 0.30982,-0.22236 0.40089,-0.45029 0.19879,-0.50728 -0.21737,-0.0613 -2.1209,0.5361 -4.63059,1.55632 -4.99132,2.02897 -5.24152,2.4869 -0.30448,0.50817 2.13996,-0.85768 3.32155,-1.20254 3.19181,-1.00843 -0.12608,0.18854 0.0694,0.18861 0.38957,0.0738 -2e-5,0 -4e-5,0 -6e-5,1e-5 z m -1.80737,0.62986 c 0.5002,-0.24469 0.10845,-0.14767 -1.04968,0.31061 -1.15821,0.45832 -1.51017,0.65562 -0.97799,0.49177 0.56422,-0.17371 1.49736,-0.54297 2.02767,-0.80238 z M 92.591277,116.21595 c 0.09181,-0.32795 0.330564,-0.81649 0.532636,-1.09069 0.204507,-0.27758 0.120441,-0.002 -0.169833,0.59253 -0.289936,0.59345 -0.455869,0.83062 -0.3628,0.49817 -10e-7,0 -2e-6,0 -3e-6,-10e-6 z m -3.952569,9.7715 c 0.09088,-0.25052 0.256854,-0.42152 0.367891,-0.3807 0.111026,0.0408 0.126858,0.27775 0.03632,0.52734 -0.09054,0.2496 -0.254615,0.42131 -0.365988,0.38143 -0.111386,-0.0399 -0.129112,-0.27753 -0.03822,-0.52807 z m 39.563992,48.85281 c 0.51705,-0.2244 1.03715,-0.45322 1.50484,-0.66121 0,0 0,0 0,0 1.4126,-0.62826 2.5053,-1.13555 2.65095,-1.27631 0.15656,-0.15129 -1.01125,0.28873 -2.74041,1.08262 0,0 0,0 0,0 -0.33898,0.15559 -0.69672,0.32352 -1.07122,0.50329 -1.37959,0.66238 -2.75107,1.34183 -4.12052,2.02407 1.2563,-0.56346 2.51404,-1.12458 3.77636,-1.67246 z m -30.685967,10.64559 c -0.219139,0.0175 -0.506245,-0.0497 -0.782469,-0.2109 -0.201489,-0.1176 -0.42589,-0.11549 -1.607621,-0.40223 -0.761594,-0.18479 -3.379628,-0.81055 -5.635377,-2.65923 0,0 -10e-7,0 -10e-7,0 -0.815117,-0.66067 -1.635995,-1.51377 -2.433069,-2.62309 -0.407626,-0.5673 -0.794904,-1.18224 -1.163124,-1.84476 -0.978544,-1.75573 -1.549253,-3.38114 -1.871867,-4.4308 -0.417464,-1.35828 -0.531001,-2.3312 -0.433985,-2.20656 0.203428,0.26137 0.783863,3.13849 2.646688,6.44207 0,0 0,0 0,0 0.680218,1.21192 1.523528,2.46866 2.581664,3.55612 0.275607,0.28324 0.573446,0.56105 0.894837,0.82621 1.922048,1.61636 4.155271,2.30303 5.533991,2.59375 1.996592,0.42098 2.6543,0.42207 2.643921,0.66873 -0.0073,0.1718 -0.154245,0.27313 -0.373589,0.29069 z m 8.750447,-1.21656 c -1.04179,0.32552 -2.44636,0.65001 -3.85385,0.81519 -1.36371,0.16005 -2.487282,0.13305 -2.749011,0.0289 -0.389977,-0.15513 0.02855,-0.18555 1.094041,-0.26101 1.1263,-0.0798 2.4575,-0.25814 4.05577,-0.60994 1.3494,-0.29706 2.47097,-0.52918 2.50498,-0.41996 0.0206,0.0662 -0.39655,0.242 -1.05193,0.44678 z M 84.985006,138.77414 c 0.155822,-0.60547 0.378174,-1.19207 0.547581,-1.33253 0.16221,-0.13452 0.08248,0.45291 -0.168758,1.4015 -0.237497,0.8966 -0.473921,1.50894 -0.539731,1.35094 -0.08234,-0.19762 0.0051,-0.81439 0.16095,-1.41988 -1.4e-5,-1e-5 -2.8e-5,-2e-5 -4.2e-5,-3e-5 z m 11.01706,-28.48838 c 0.09713,-0.34228 0.285803,-0.71918 0.419223,-0.834 1.55e-4,8e-5 3.1e-4,1.5e-4 4.65e-4,2.3e-4 0.132972,-0.11447 0.05727,0.16594 -0.174779,0.62549 -0.2587,0.51223 -0.350689,0.58092 -0.244909,0.20828 0,0 0,0 0,0 z m -13.478502,44.4466 c 0.02054,-0.24841 0.134763,-0.44353 0.252487,-0.4332 0.117734,0.0103 0.184228,0.35364 0.151753,0.76333 -0.03237,0.40845 -0.142396,0.60662 -0.248708,0.4342 -0.106117,-0.17212 -0.176133,-0.51516 -0.155532,-0.76433 z m 35.183216,24.69355 c -1.5417,0.71667 -3.13846,1.34477 -3.78927,1.46391 -0.64173,0.11748 -1.28257,0.22813 -1.92261,0.33028 -0.63172,0.10081 -0.98357,0.17723 -1.15468,0.24862 0.66699,-0.42322 1.43908,-0.79028 3.50355,-1.7279 1.97037,-0.89489 3.5359,-1.75979 3.49584,-1.84495 -0.0401,-0.0851 0.22071,-0.29306 0.57858,-0.46331 0.61424,-0.2922 1.02366,-0.0665 1.12362,0.62897 0.0288,0.20016 0.27404,0.14744 0.69586,-0.15262 0.37933,-0.26987 0.57844,-0.33107 0.47687,-0.14365 -0.11323,0.20916 -1.49309,0.95654 -3.00777,1.66065 z M 83.848744,145.33536 c 0.05868,-0.6084 0.222919,-1.44326 0.370165,-1.89335 0.153106,-0.46787 0.07775,0.074 -0.119277,1.08717 -0.193288,0.99397 -0.313284,1.45248 -0.250927,0.80618 1.3e-5,0 2.6e-5,0 3.9e-5,0 z m -1.51377,16.06806 c -0.0082,-0.54659 0.0235,-1.17116 0.09413,-1.62887 0.0062,-0.0396 0.01269,-0.0779 0.01943,-0.11449 0.0081,-0.044 0.05226,0.005 0.11654,0.11768 0,0 0,0 0,0 0.05976,0.10423 0.137194,0.26345 0.219972,0.45452 0.170754,0.39416 0.314939,1.00908 0.315248,1.3513 4.27e-4,0.45455 -0.05288,0.45473 -0.212923,-0.0848 -0.176629,-0.59549 -0.213525,-0.61669 -0.212392,0.11981 8.41e-4,0.46146 -0.08478,0.84193 -0.19669,0.84393 -0.0792,0.001 -0.134428,-0.47073 -0.143321,-1.05903 3e-6,-2e-5 7e-6,-4e-5 1.1e-5,-6e-5 z m 0.147672,-4.503 c 0.0228,-0.12972 0.06563,-0.20811 0.12275,-0.20467 0.114269,0.007 0.188024,0.33537 0.167681,0.7298 -0.02035,0.39468 -0.07165,0.71698 -0.118089,0.71498 -0.04647,-0.002 -0.126302,-0.33019 -0.173826,-0.73008 -0.02375,-0.19994 -0.02133,-0.38028 0.0015,-0.51002 -3e-6,0 -6e-6,-1e-5 -9e-6,-1e-5 z m 0.529187,12.01031 c -0.106362,-0.64683 -0.07772,-1.19151 0.03993,-1.20713 0.117905,-0.0156 0.281306,0.50063 0.385213,1.1365 0.103872,0.63566 0.113326,1.17179 -0.002,1.19517 -0.115834,0.0234 -0.316771,-0.47751 -0.423169,-1.12454 z m -0.335156,-2.60437 c -0.05029,-0.52622 0.01617,-0.96443 0.134954,-0.97329 0.118901,-0.009 0.246898,0.4129 0.29615,0.93165 0.04925,0.51866 0.003,0.95345 -0.114762,0.96761 -0.117988,0.0142 -0.266159,-0.40087 -0.316339,-0.92597 z m -0.184226,-2.85089 c -0.01016,-0.28097 0.08128,-0.51274 0.200368,-0.5159 0.119113,-0.003 0.219574,0.0884 0.223158,0.20455 0.0036,0.11548 -0.08664,0.34717 -0.19897,0.51453 -0.111972,0.1668 -0.214349,0.0786 -0.224542,-0.20331 -5e-6,4e-5 -9e-6,9e-5 -1.4e-5,1.3e-4 z m 34.417129,16.07942 c 0.38936,-0.18811 0.77814,-0.37808 1.16647,-0.56959 -0.46041,0.15549 -0.92089,0.30887 -1.38145,0.45962 -0.76888,0.25174 -1.43822,0.45821 -1.52753,0.48074 -0.0799,0.0201 0.0145,0.0715 0.21214,0.11315 0.19855,0.0419 0.88608,-0.17256 1.53033,-0.4839 2e-5,0 3e-5,-1e-5 4e-5,-2e-5 z m -8.26691,3.31114 c -0.16587,0.0923 -0.4002,0.18639 -0.63439,0.25856 0,0 0,0 0,0 -0.17941,0.0551 -0.35678,0.0967 -0.50096,0.11522 -0.32851,0.0422 -0.0977,-0.0756 0.45338,-0.25981 0.0264,-0.009 0.0536,-0.0179 0.0816,-0.0271 0.61026,-0.20119 0.9048,-0.25618 0.60037,-0.0868 z m -6.80135,1.5932 c -0.58606,0.0853 -1.17142,0.0185 -1.31278,-0.12539 -0.18594,-0.1892 0.21513,-0.27815 1.23296,-0.42706 1.02206,-0.14953 1.44037,-0.17657 1.3117,0.0585 -0.0971,0.17745 -0.64738,0.40886 -1.23188,0.49397 z M 85.08576,141.40897 c 0.113317,-0.738 0.354515,-1.75307 0.550325,-2.33252 0.202694,-0.59407 0.068,0.0765 -0.220733,1.30557 -0.283349,1.20697 -0.453061,1.83157 -0.329592,1.02695 z m 13.836039,43.19752 c -0.138465,0.0273 -0.287514,0.0408 -0.426738,0.0411 -0.194634,2e-4 -0.366131,-0.0255 -0.453986,-0.0709 -0.138321,-0.0714 0.07408,-0.10504 0.455634,-0.10202 0,0 0,0 0,0 0.04635,2.7e-4 0.09539,0.001 0.146828,0.002 0.496514,0.0122 0.680552,0.0502 0.278262,0.12943 z M 84.551903,143.97424 c 0.0066,-0.35298 0.09697,-0.7567 0.199771,-0.89909 0.103224,-0.14301 0.09343,0.14731 -0.01515,0.63992 -0.118697,0.53832 -0.191969,0.65622 -0.184627,0.25917 2e-6,0 4e-6,0 6e-6,0 z m 56.388507,24.52696 c 0.33703,-0.19539 0.22131,-0.20891 -0.32181,-0.02 -0.48764,0.1696 -0.73736,0.3185 -0.56146,0.32873 0.17647,0.0103 0.57418,-0.12949 0.88327,-0.30868 z m -47.051115,15.37382 c -0.231575,-0.0986 -0.408943,-0.24333 -0.372251,-0.35092 0.01676,-0.0491 0.323687,0.0104 0.688133,0.1135 0.359891,0.10185 0.530024,0.23878 0.344685,0.31911 -0.150729,0.0655 -0.428662,0.0171 -0.660568,-0.0817 z m -9.872054,-35.7028 c 0.06342,-0.5231 0.186861,-0.94021 0.268221,-0.92675 0.08127,0.0134 0.196359,0.46928 0.261625,1.00915 0.101996,0.84358 0.07293,0.97215 -0.258403,0.92395 -0.229182,-0.0334 -0.340825,-0.43421 -0.27144,-1.00635 -1e-6,0 -2e-6,0 -3e-6,0 z m 5.39758,33.06572 c -0.281494,-0.16535 -0.544228,-0.4342 -0.59679,-0.59282 -0.05426,-0.16358 0.167571,0.009 0.489164,0.31973 0.324693,0.31412 0.458783,0.47931 0.107608,0.27308 6e-6,0 1.2e-5,0 1.8e-5,1e-5 z m -6.321599,-24.39376 c -0.04064,-0.3339 -0.0057,-0.86508 0.07818,-1.19083 0.08576,-0.33302 0.109367,-0.0424 0.06706,0.60193 -0.04229,0.64416 -0.103697,0.93031 -0.145242,0.5889 z m 2.261251,18.10734 c -0.136388,-0.32503 -0.111643,-0.64388 0.04486,-0.70434 0.155906,-0.0602 0.159111,-0.54565 0.03272,-1.07914 -0.211538,-0.89273 -0.04158,-0.41262 0.259643,0.37707 0.280554,0.73533 0.535113,1.33769 0.515518,1.3662 -0.33374,0.48785 -0.646578,0.53155 -0.852761,0.0402 5e-6,1e-5 1.1e-5,2e-5 1.6e-5,3e-5 z m 38.869107,0.35502 c -0.34082,0.16619 -0.55828,0.20114 -0.61441,0.0862 -0.052,-0.10644 0.54658,-0.49964 1.33401,-0.87253 1.2126,-0.5742 1.29388,-0.57315 0.6359,-0.0855 -0.55123,0.40851 -1.01408,0.70533 -1.3555,0.87182 z m -24.856328,8.86066 c -0.325912,0.0732 -0.708333,0.0658 -0.860984,-0.008 -0.0023,-0.001 -0.0044,-0.002 -0.0065,-0.003 0,0 0,0 0,0 0,0 0,0 0,0 -0.04566,-0.0253 -0.0424,-0.0472 6.13e-4,-0.0642 0,0 0,0 0,0 0.07969,-0.0315 0.292043,-0.0467 0.591379,-0.0463 0.487946,6.9e-4 0.666578,0.0345 0.275506,0.12243 z m -15.67387,-15.51735 c -0.114279,-0.32308 -0.161967,-0.71897 -0.111723,-0.88551 0.05175,-0.16282 0.13447,0.10676 0.197184,0.58705 0.06734,0.51598 0.04744,0.67413 -0.08546,0.29848 10e-7,-1e-5 2e-6,-1e-5 4e-6,-2e-5 z m 6.086337,12.25391 c -1.11838,-1.10159 -1.898948,-2.37558 -2.01988,-2.51063 -0.12158,-0.13581 -0.137858,-0.30095 -0.04042,-0.36535 0.131714,-0.0871 0.618135,1.16215 2.769676,2.91866 0.726846,0.62507 1.715414,1.27733 3.068178,1.81157 0.908379,0.35882 1.879385,0.62098 2.878516,0.79419 -0.75286,-0.0425 -1.502556,-0.13566 -2.236384,-0.28681 -1.202629,-0.24758 -2.754707,-0.88722 -3.987126,-1.96745 -0.15498,-0.13062 -0.299332,-0.26291 -0.432584,-0.39415 z m 51.369961,-13.3486 c 0.49679,-0.1889 0.99459,-0.37525 1.49338,-0.55904 -0.48098,0.11056 -0.96167,0.22349 -1.44206,0.3388 -0.79307,0.19051 -1.49739,0.36225 -1.56566,0.37274 -0.068,0.0104 -0.0907,0.11004 -0.0493,0.22084 0.0414,0.11077 0.74409,-0.0616 1.56354,-0.37332 3e-5,-1e-5 6e-5,-1e-5 9e-5,-2e-5 z m -15.94569,6.10416 c 0.33405,-0.1614 0.69018,-0.44005 0.78907,-0.61847 0.10224,-0.18455 -0.31882,-0.0867 -0.9765,0.231 -0.65717,0.31745 -0.99242,0.58452 -0.78492,0.61961 0.20079,0.034 0.63792,-0.0706 0.97235,-0.23214 z m -2.295,0.93346 c 0.19557,-0.17212 -0.0574,-0.19294 -0.56098,-0.0466 -0.7056,0.20497 -0.57058,0.089 0.5993,-0.50826 1.25057,-0.63847 1.36053,-0.73107 0.56202,-0.51365 -0.52929,0.14411 -1.6089,0.57226 -2.40379,0.9513 -0.48093,0.22937 -0.96067,0.45777 -1.43944,0.68458 0.47897,-0.0404 0.95919,-0.0822 1.44038,-0.12475 0.79391,-0.0703 1.60711,-0.27059 1.80251,-0.44259 z m -4.09325,1.93423 c 0.25244,-0.12113 0.29549,-0.24949 0.0974,-0.28548 -0.19815,-0.036 -0.44624,-0.025 -0.5509,0.0251 -0.10484,0.0502 -0.1483,0.17869 -0.0972,0.28549 0.0508,0.10687 0.29867,0.0958 0.5508,-0.0251 -4e-5,1e-5 -8e-5,2e-5 -1.1e-4,3e-5 z m -10.14146,4.27459 c -0.36639,0.15841 -0.82461,0.32689 -1.26983,0.46803 -0.3526,0.1102 -0.68074,0.19906 -0.92892,0.25085 -0.56083,0.11701 -0.0522,-0.0653 0.88891,-0.37241 0.041,-0.0136 0.2577,-0.0852 0.29867,-0.0988 1.08661,-0.3594 1.78003,-0.58022 1.01117,-0.2477 z m 8.34651,-3.52532 c 0.47543,-0.22268 0.83212,-0.47657 0.79235,-0.56057 -0.0399,-0.0841 -0.46129,0.0322 -0.93541,0.25433 -0.47406,0.22211 -0.83066,0.47011 -0.79189,0.55446 0.0389,0.0844 0.45944,-0.0255 0.93495,-0.24822 z m -21.05449,5.215 c -0.219178,-0.0385 -0.377204,-0.17014 -0.352868,-0.28636 0.02434,-0.11609 0.217921,-0.17564 0.429141,-0.13871 0.21259,0.0372 0.373718,0.15881 0.356021,0.27635 -0.01771,0.11753 -0.213023,0.18722 -0.432294,0.14872 z m -1.345181,-0.30208 c -0.329924,-0.0915 -0.556498,-0.26987 -0.518345,-0.38164 0.03815,-0.1117 0.222939,-0.15233 0.410563,-0.0968 0.185612,0.0549 0.424725,0.2199 0.523419,0.36476 0.09777,0.14354 -0.0825,0.20613 -0.415637,0.1137 z m -8.213217,-37.69679 c 0.635184,-3.23087 1.167364,-5.03952 1.137529,-4.82701 -0.03184,0.22679 -1.632291,8.51172 -1.699408,8.79123 -0.10082,0.41989 -0.130462,-0.44263 0.561876,-3.96422 z m 6.481833,36.83529 c -0.290249,-0.13621 -0.470058,-0.34648 -0.413544,-0.4497 0.05652,-0.10319 0.233221,-0.11559 0.398509,-0.0333 0.161422,0.0803 0.356442,0.27625 0.423644,0.43085 0.06648,0.15301 -0.112223,0.19127 -0.408609,0.0522 z m -2.734809,-1.957 c -0.859164,-0.87992 -1.231794,-1.63715 -1.146265,-1.59498 0.267605,0.13196 1.461817,1.53143 2.259288,2.18173 0.346655,0.31066 0.61224,0.52322 0.578108,0.57574 -0.03294,0.0507 -0.339503,-0.0762 -0.742732,-0.3667 -0.288587,-0.19039 -0.613081,-0.45237 -0.948399,-0.79579 z m -3.738653,-6.42458 c -0.07548,-0.22119 -0.04737,-0.43189 0.0577,-0.46593 0.104826,-0.034 0.305125,0.10046 0.446821,0.29238 0.141348,0.19141 0.121202,0.3975 -0.05094,0.46029 -0.171793,0.0626 -0.378101,-0.0656 -0.45358,-0.28674 z m 11.609005,-60.57718 c 0.317097,-0.63879 0.353046,-0.65057 0.231789,0.009 -0.182196,0.99103 -0.472241,1.56345 -0.545007,1.10223 -0.03185,-0.20184 0.10935,-0.70058 0.313218,-1.11124 z m -10.593553,63.0025 c -0.535008,-1.08723 -0.382095,-0.93055 0.141762,-0.43993 0.788813,0.73872 1.05022,1.08471 0.678891,1.29359 -0.17872,0.10052 -0.488562,-0.17911 -0.820639,-0.85367 z m 39.120315,-3.15449 c 0.27663,-0.19645 0.012,-0.12702 -0.60211,0.16633 -0.61307,0.2928 -0.83292,0.45441 -0.50673,0.36321 0.32878,-0.0919 0.82951,-0.33111 1.10884,-0.52953 z m -40.354719,-0.22649 c -0.03817,-0.0694 -0.06095,-0.17485 -0.05774,-0.29828 0.0064,-0.24706 0.05675,-0.45902 0.106993,-0.4725 0.05011,-0.0134 0.13913,0.16072 0.201512,0.38423 0.06224,0.22302 0.01963,0.43543 -0.09926,0.47165 -0.05947,0.0181 -0.113336,-0.0157 -0.151518,-0.0851 z m 10.252206,-55.83072 c 0.158516,-0.28198 -0.243558,0.60602 -0.886936,2.14508 -0.08831,0.21126 -0.172795,0.4153 -0.254007,0.61339 -2.304893,5.63943 -2.382195,6.40822 -2.924643,7.42962 -0.184897,0.34812 -0.368097,0.69771 -0.549635,1.04869 0.124814,-0.37142 0.251507,-0.74205 0.380134,-1.11182 0.267397,-0.76816 1.178945,-3.34145 2.471128,-6.32631 0.173835,-0.40154 0.336982,-0.77026 0.487006,-1.10388 0,0 0,0 0,0 0.699538,-1.55134 1.215798,-2.58598 1.27695,-2.69477 10e-7,0 2e-6,0 3e-6,0 z m -9.70091,28.97734 c -8.78e-4,-0.0868 0.02927,-0.20111 0.08991,-0.32086 0.121222,-0.23956 0.262663,-0.42615 0.313896,-0.41595 0.05117,0.0102 0.05198,0.22487 0.0027,0.47749 -0.04926,0.25262 -0.189287,0.44003 -0.312391,0.41669 -0.06154,-0.0117 -0.09326,-0.0706 -0.09414,-0.15739 -10e-7,1e-5 -10e-7,1e-5 -10e-7,2e-5 z m 39.110993,26.77121 c 1.5809,-0.75633 2.13021,-1.06989 1.61194,-0.98206 -0.40602,0.0688 -0.86404,0.23412 -1.02083,0.36725 -0.1564,0.13277 -0.45259,0.2129 -0.65831,0.17766 -0.42977,-0.0736 -0.87372,0.11279 -1.78058,0.7574 -1.35096,0.9603 -0.35629,0.73392 1.84778,-0.32025 z m -35.247139,-40.3308 c 0.20936,-0.68157 0.478211,-1.20506 0.590561,-1.16785 0.243456,0.0806 0.120657,0.41854 -0.507186,1.56515 -0.394483,0.72041 -0.428962,0.72787 -0.08338,-0.3973 z m -1.083779,3.69181 c 0.09,-0.25656 0.173547,-0.39831 0.233531,-0.38087 0.299505,0.0871 -0.301915,2.59983 -1.270852,6.72293 -0.47348,2.01473 -0.787208,3.95046 -0.787617,4.43704 -4.41e-4,0.53597 -0.09923,0.81898 -0.290246,0.80715 -0.161014,-0.01 -0.13362,0.1925 0.06281,0.4484 0.196066,0.25541 0.229346,0.45647 0.07204,0.44852 -0.160249,-0.008 -0.344367,0.43953 -0.412267,1.02145 -0.25708,2.20261 -0.597431,4.46696 -0.776107,4.44838 -0.102861,-0.0107 0.135889,-3.49889 0.916977,-7.72636 0.781128,-4.22745 1.824245,-8.3322 1.982187,-9.1612 0.08349,-0.43827 0.179525,-0.8088 0.269543,-1.06544 z m 1.873029,-5.91808 c 0.09661,-0.45338 0.306452,-1.04481 0.469656,-1.32715 0.165902,-0.28707 0.07375,0.0942 -0.180761,0.81592 -0.251847,0.71384 -0.388416,0.97849 -0.288844,0.51125 z m 26.400509,46.22946 c 0.23655,-0.11302 0.38805,-0.29373 0.33691,-0.4005 -0.0511,-0.10679 -0.28613,-0.10116 -0.52212,0.0116 -0.23596,0.11277 -0.38729,0.29177 -0.33665,0.39872 0.0506,0.10697 0.28532,0.10316 0.52186,-0.01 z m 2.07215,-1.00438 c 0.63242,-0.31089 0.62605,-0.34126 -0.009,-0.23135 -0.96344,0.16692 -1.5361,0.44073 -1.0789,0.52353 0.19817,0.0359 0.68665,-0.0947 1.08884,-0.29245 -2.6e-4,9e-5 -5.2e-4,1.8e-4 -7.8e-4,2.7e-4 z M 86.08519,153.82406 c 0.02556,-0.11273 0.06777,-0.0831 0.128069,0.0812 0.121999,0.33241 0.08364,4.49252 3.38e-4,5.95792 0,0 0,0 0,0 -0.01786,0.44268 -0.05074,0.72032 -0.107702,0.71959 -0.05516,-7e-4 -0.106402,-0.27819 -0.13997,-0.72539 -0.02592,-0.43964 -0.03084,-1.03161 -0.003,-1.68969 0.05166,-1.21654 0.113498,-3.05198 0.09895,-3.57994 -0.01095,-0.3971 -0.002,-0.65202 0.0233,-0.76368 2e-6,0 3e-6,0 5e-6,-1e-5 z m 12.236471,27.76533 c -0.383055,0.0395 -0.879516,-0.003 -1.137039,-0.0928 -0.272786,-0.0947 0.07977,-0.0859 0.673866,-0.0406 0.571278,0.0437 0.886386,0.0898 0.463159,0.13343 5e-6,2e-5 9e-6,3e-5 1.4e-5,5e-5 z M 85.992029,163.87294 c -0.01598,-0.33899 0.0443,-0.57131 0.181007,-0.57613 0.119273,-0.004 0.234457,0.54647 0.272103,1.21274 0.05166,0.91506 0.03178,1.09293 -0.177257,0.5658 -0.167432,-0.4222 -0.259829,-0.86262 -0.275853,-1.20241 z m 54.949221,1.01906 c 0.46453,-0.16587 1.12275,-0.46686 1.73787,-0.81399 0.71843,-0.40545 0.67691,-0.43446 -0.62775,0.005 -0.83323,0.28088 -1.60703,0.65444 -1.72724,0.8244 -0.13061,0.18475 0.15095,0.1507 0.61712,-0.0157 z m -26.43232,11.44518 c 0.69158,-0.34074 1.22784,-0.69447 1.19107,-0.77505 -0.0369,-0.0809 -0.64192,0.12225 -1.34142,0.43948 -0.69928,0.31713 -1.23358,0.65266 -1.18832,0.75635 0.0455,0.10406 0.64684,-0.0799 1.33867,-0.42078 z M 77.334948,75.862579 c -0.180713,0.08814 -0.385795,0.168063 -0.566793,0.224509 0,0 0,0 0,0 -0.181474,0.05453 -0.342142,0.08609 -0.438905,0.08024 -0.157759,-0.0095 0.0074,-0.11392 0.387968,-0.243961 0,0 0,0 0,0 0.07855,-0.02776 0.166082,-0.05649 0.261547,-0.08542 0.658941,-0.199632 0.72004,-0.152869 0.356183,0.02465 0,-2e-6 0,-5e-6 0,-8e-6 z m 20.834098,40.122871 c -0.628007,1.22972 -1.082771,2.35171 -1.044091,2.55068 0.07398,0.38061 1.208314,-1.85851 1.800875,-3.63037 0.310066,-0.92718 0.146813,-0.68966 -0.756786,1.07969 0,0 10e-7,0 2e-6,0 z m 7.028334,-21.104896 c -0.0116,-1.207853 -0.10794,-3.2004 -0.22661,-4.437804 -0.29346,-3.059778 0.25525,1.586204 0.28739,2.227503 0.0237,0.472632 -0.0304,5.387088 -0.0608,2.210301 z m -3.85778,14.622466 c 0,0 4.7e-4,2.1e-4 4.7e-4,2.1e-4 -0.15653,0.4058 -0.21667,0.77093 0.64843,-1.26813 0.85582,-2.01719 0.71974,-1.94884 0.57195,-1.63078 -0.28418,0.61117 -0.93364,2.15417 -1.22087,2.8987 1e-5,0 1e-5,0 2e-5,0 z m 3.0183,-8.38021 c 0.0717,-0.51989 0.24279,-1.318011 0.36287,-1.662168 0.10423,-0.298781 0.11939,0.01865 -0.1014,1.008048 -0.23573,1.05575 -0.31677,1.05564 -0.26143,0.65413 z M 99.326801,78.694594 c -0.3252,-0.254018 -1.499897,-1.192423 -1.664845,-1.338335 -0.368605,-0.326045 0.16417,-0.0661 1.075104,0.684906 0.910951,0.751161 1.131441,1.076517 0.589761,0.653407 z m 2.440269,2.858973 c -0.18791,-0.21447 -0.39096,-0.478919 -0.53567,-0.692409 0,0 0,0 0,0 -0.10075,-0.14882 -0.17941,-0.280366 -0.21451,-0.371369 -0.0574,-0.153785 0.0825,-0.05841 0.34525,0.272803 0.0838,0.105409 0.17829,0.232804 0.27877,0.379379 0.52915,0.771992 0.38804,0.710488 0.12615,0.411599 0,-10e-7 1e-5,-2e-6 1e-5,-3e-6 z m -5.696387,-5.156003 c -0.04911,-0.0191 -0.099,-0.03907 -0.149077,-0.0596 -0.454183,-0.177048 -0.930539,-0.398261 -1.093029,-0.530916 -0.154449,-0.128957 0.180905,-0.07689 0.899585,0.274967 0.09491,0.04647 0.180709,0.09035 0.256614,0.130645 0.631179,0.349213 0.467967,0.333481 0.0859,0.184906 2e-6,-2e-6 4e-6,-4e-6 6e-6,-6e-6 z M 95.434838,180.10537 c -0.250663,0.003 -0.516325,-0.0824 -0.59689,-0.18299 -0.08205,-0.10244 0.118671,-0.0858 0.439934,0.009 0.342129,0.10071 0.453325,0.17073 0.156954,0.17424 10e-7,-1e-5 10e-7,-1e-5 2e-6,-1e-5 z m -6.637935,-7.06944 c -0.153923,-0.22585 -0.297347,-0.62117 -0.325672,-0.89806 -0.0301,-0.29391 0.08804,-0.0543 0.258653,0.41645 0.169446,0.46751 0.231016,0.72222 0.06702,0.48161 z m -1.377131,-18.16259 c 0.03118,-0.63801 0.120904,-1.33069 0.233868,-1.6013 0.159445,-0.38194 0.16882,0.0548 0.07263,1.12078 -0.08388,0.93234 -0.171729,1.69248 -0.216814,1.68926 -0.09321,-0.007 -0.120714,-0.57397 -0.08969,-1.20874 z m 15.186918,24.77132 c 0.31437,-0.14251 0.17713,-0.15869 -0.26128,-0.0776 -0.40514,0.075 -0.62866,0.16349 -0.48542,0.21108 0.14149,0.0471 0.47473,-0.0102 0.7467,-0.13352 z m -10.339779,-1.61625 c 0.235682,0.10316 0.168254,-0.006 -0.03638,-0.20695 -0.203794,-0.20035 -0.360245,-0.30377 -0.343567,-0.17877 0.01626,0.12221 0.187323,0.3014 0.379957,0.38571 z m -1.002147,-1.08522 c 0.224062,0.16873 0.185221,0.0488 -0.01383,-0.23327 -0.192118,-0.27222 -0.346381,-0.41454 -0.341232,-0.27855 0.005,0.13404 0.165293,0.36893 0.355068,0.51182 z m 14.781956,1.76262 c 0.0702,-0.0395 0.10447,-0.0943 0.0853,-0.15395 -0.0383,-0.11933 -0.25672,-0.15949 -0.48264,-0.0913 -0.22619,0.0682 -0.3974,0.16342 -0.38235,0.21348 0.0151,0.0502 0.22854,0.0944 0.47853,0.0954 0.12486,5.1e-4 0.23088,-0.024 0.30119,-0.0636 -1e-5,1e-5 -1e-5,1e-5 -2e-5,2e-5 z m -9.883585,0.96731 c 0.186648,0.036 0.2636,-0.0517 0.18122,-0.18619 -0.08288,-0.13526 -0.207809,-0.25907 -0.279125,-0.27381 -0.07267,-0.015 -0.154417,0.0663 -0.18215,0.1816 -0.02775,0.11533 0.09651,0.24301 0.280104,0.27841 -1.6e-5,0 -3.3e-5,-10e-6 -4.9e-5,-10e-6 z m -8.267602,-13.36939 c 0.03682,0.38963 0.180975,0.79927 0.316833,0.92177 0.31967,0.2882 0.229556,-0.26145 -0.112857,-1.02422 -0.223899,-0.49878 -0.263215,-0.52636 -0.20397,0.10252 -2e-6,-2e-5 -4e-6,-5e-5 -6e-6,-7e-5 z m 2.88492,9.18856 c 0.242247,0.27207 0.144397,0.0435 -0.13124,-0.41463 -0.0085,-0.0141 -0.01682,-0.0279 -0.0251,-0.0416 0,0 0,0 0,0 -0.27626,-0.44069 -0.454973,-0.70311 -0.382656,-0.44671 0.03862,0.13709 0.133249,0.32968 0.256044,0.51926 0.08834,0.14085 0.186933,0.27585 0.282918,0.38368 z"
       id="path7"
       inkscape:original-d="m 50.729792,97.620867 c 0.679641,-1.072717 1.263155,-2.212753 2.038922,-3.218143 2.436024,-3.15708 9.577149,-6.691503 12.750876,-8.376301 7.452916,-3.956442 17.581449,-8.546087 26.201679,-6.116754 0.690822,0.194686 1.38797,0.415327 2.008492,0.776004 3.170058,1.842593 5.307142,3.652184 5.782019,7.372059 1.12371,8.802367 -4.356915,21.223278 -7.42533,29.351288 -1.811467,4.79845 -3.86397,9.51042 -5.477703,14.37894 -2.97561,8.9772 -4.942028,18.47665 -4.869069,27.97045 0.04987,6.48898 0.346289,12.44811 3.621371,18.2932 0.969594,1.73046 2.448986,3.12749 3.803959,4.57616 5.201322,5.56097 12.874192,3.14274 19.080672,1.19824 7.4818,-2.34407 14.69953,-5.71293 21.48476,-9.59737 2.79852,-1.60211 11.19871,-7.37211 14.94196,-5.9684"
       inkscape:path-effect="#path-effect7;#path-effect8" /></g></svg>
